<?xml version="1.0" encoding="UTF-8" standalone="no"?>
<!DOCTYPE svg PUBLIC "-//W3C//DTD SVG 1.1//EN"
 "http://www.w3.org/Graphics/SVG/1.1/DTD/svg11.dtd">
<!-- Generated by graphviz version 2.43.0 (0)
 -->
<!-- Title: G Pages: 1 -->
<svg width="288pt" height="706pt"
 viewBox="0.00 0.00 288.41 705.95" xmlns="http://www.w3.org/2000/svg" xmlns:xlink="http://www.w3.org/1999/xlink">
<g id="graph0" class="graph" transform="scale(1 1) rotate(0) translate(4 701.95)">
<title>G</title><style>.edge>path:hover{stroke-width:8}</style>
<polygon fill="white" stroke="transparent" points="-4,4 -4,-701.95 284.41,-701.95 284.41,4 -4,4"/>
<!-- carbon -->
<g id="node1" class="node">
<title>carbon</title><style>.edge>path:hover{stroke-width:8}</style>
<polygon fill="blue" stroke="black" points="226.55,-36 172.55,-36 172.55,0 226.55,0 226.55,-36"/>
<text text-anchor="middle" x="199.55" y="-15.5" font-family="Helvetica,sans-Serif" font-size="10.00" fill="white">carbon</text>
</g>
<!-- carbon_core -->
<g id="node2" class="node">
<title>carbon_core</title><style>.edge>path:hover{stroke-width:8}</style>
<ellipse fill="#f31616" stroke="black" cx="199.55" cy="-100.99" rx="43.62" ry="18"/>
<text text-anchor="middle" x="199.55" y="-98.49" font-family="Helvetica,sans-Serif" font-size="10.00" fill="#ffffff">carbon.core</text>
</g>
<!-- carbon_core&#45;&gt;carbon -->
<g id="edge1" class="edge">
<title>carbon_core&#45;&gt;carbon</title><style>.edge>path:hover{stroke-width:8}</style>
<path fill="none" stroke="black" d="M199.55,-82.82C199.55,-72.18 199.55,-58.3 199.55,-46.2"/>
<polygon fill="#f31616" stroke="black" points="203.05,-46.15 199.55,-36.15 196.05,-46.15 203.05,-46.15"/>
</g>
<!-- carbon_core_connection -->
<g id="node3" class="node">
<title>carbon_core_connection</title><style>.edge>path:hover{stroke-width:8}</style>
<polygon fill="blue" stroke="black" points="170.55,-283.98 100.55,-283.98 100.55,-242.98 170.55,-242.98 170.55,-283.98"/>
<text text-anchor="middle" x="135.55" y="-271.98" font-family="Helvetica,sans-Serif" font-size="10.00" fill="white">carbon.</text>
<text text-anchor="middle" x="135.55" y="-260.98" font-family="Helvetica,sans-Serif" font-size="10.00" fill="white">core.</text>
<text text-anchor="middle" x="135.55" y="-249.98" font-family="Helvetica,sans-Serif" font-size="10.00" fill="white">connection</text>
</g>
<!-- carbon_core_connection&#45;&gt;carbon -->
<g id="edge2" class="edge">
<title>carbon_core_connection&#45;&gt;carbon</title><style>.edge>path:hover{stroke-width:8}</style>
<path fill="none" stroke="black" d="M170.84,-256.1C205.74,-247.52 256.09,-228.34 271.55,-187.48"/>
<path fill="none" stroke="black" d="M271.55,-185.48C289.65,-137.65 275.97,-117.46 252.55,-72 247.02,-61.26 238.54,-51.35 229.96,-43.06"/>
<polygon fill="blue" stroke="black" points="232.22,-40.39 222.48,-36.23 227.5,-45.56 232.22,-40.39"/>
</g>
<!-- carbon_core_module -->
<g id="node6" class="node">
<title>carbon_core_module</title><style>.edge>path:hover{stroke-width:8}</style>
<polygon fill="blue" stroke="black" points="145.55,-206.98 91.55,-206.98 91.55,-165.98 145.55,-165.98 145.55,-206.98"/>
<text text-anchor="middle" x="118.55" y="-194.98" font-family="Helvetica,sans-Serif" font-size="10.00" fill="white">carbon.</text>
<text text-anchor="middle" x="118.55" y="-183.98" font-family="Helvetica,sans-Serif" font-size="10.00" fill="white">core.</text>
<text text-anchor="middle" x="118.55" y="-172.98" font-family="Helvetica,sans-Serif" font-size="10.00" fill="white">module</text>
</g>
<!-- carbon_core_connection&#45;&gt;carbon_core_module -->
<g id="edge3" class="edge">
<title>carbon_core_connection&#45;&gt;carbon_core_module</title><style>.edge>path:hover{stroke-width:8}</style>
<path fill="none" stroke="black" d="M128.86,-232.96C127.66,-227.66 126.41,-222.14 125.21,-216.84"/>
<polygon fill="blue" stroke="black" points="125.46,-233.8 131.09,-242.78 132.29,-232.25 125.46,-233.8"/>
<polygon fill="blue" stroke="black" points="128.61,-216.04 122.99,-207.06 121.79,-217.58 128.61,-216.04"/>
</g>
<!-- carbon_core_datamethod -->
<g id="node4" class="node">
<title>carbon_core_datamethod</title><style>.edge>path:hover{stroke-width:8}</style>
<polygon fill="blue" stroke="black" points="115.55,-360.98 39.55,-360.98 39.55,-319.98 115.55,-319.98 115.55,-360.98"/>
<text text-anchor="middle" x="77.55" y="-348.98" font-family="Helvetica,sans-Serif" font-size="10.00" fill="white">carbon.</text>
<text text-anchor="middle" x="77.55" y="-337.98" font-family="Helvetica,sans-Serif" font-size="10.00" fill="white">core.</text>
<text text-anchor="middle" x="77.55" y="-326.98" font-family="Helvetica,sans-Serif" font-size="10.00" fill="white">datamethod</text>
</g>
<!-- carbon_core_datamethod&#45;&gt;carbon_core_connection -->
<g id="edge4" class="edge">
<title>carbon_core_datamethod&#45;&gt;carbon_core_connection</title><style>.edge>path:hover{stroke-width:8}</style>
<path fill="none" stroke="black" d="M92.79,-319.78C99.32,-311.34 107.06,-301.33 114.14,-292.17"/>
<polygon fill="blue" stroke="black" points="117.07,-294.11 120.42,-284.06 111.53,-289.83 117.07,-294.11"/>
</g>
<!-- carbon_core_execution -->
<g id="node5" class="node">
<title>carbon_core_execution</title><style>.edge>path:hover{stroke-width:8}</style>
<ellipse fill="#9d4343" stroke="black" cx="54.55" cy="-100.99" rx="45.01" ry="28.98"/>
<text text-anchor="middle" x="54.55" y="-109.49" font-family="Helvetica,sans-Serif" font-size="10.00" fill="#ffffff">carbon.</text>
<text text-anchor="middle" x="54.55" y="-98.49" font-family="Helvetica,sans-Serif" font-size="10.00" fill="#ffffff">core.</text>
<text text-anchor="middle" x="54.55" y="-87.49" font-family="Helvetica,sans-Serif" font-size="10.00" fill="#ffffff">execution</text>
</g>
<!-- carbon_core_datamethod&#45;&gt;carbon_core_execution -->
<g id="edge5" class="edge">
<title>carbon_core_datamethod&#45;&gt;carbon_core_execution</title><style>.edge>path:hover{stroke-width:8}</style>
<path fill="none" stroke="black" d="M70.97,-319.89C66.62,-304.85 62,-283.49 63.55,-264.48"/>
<path fill="none" stroke="black" d="M63.55,-262.48C66.97,-220.69 63.28,-172.68 59.64,-140.14"/>
<polygon fill="blue" stroke="black" points="63.11,-139.67 58.47,-130.14 56.16,-140.48 63.11,-139.67"/>
</g>
<!-- carbon_core_datamethod&#45;&gt;carbon_core_module -->
<g id="edge6" class="edge">
<title>carbon_core_datamethod&#45;&gt;carbon_core_module</title><style>.edge>path:hover{stroke-width:8}</style>
<path fill="none" stroke="black" d="M63.55,-262.48C65.05,-244.19 76.06,-227.35 87.85,-214.28"/>
<polygon fill="blue" stroke="black" points="90.4,-216.68 94.81,-207.04 85.35,-211.83 90.4,-216.68"/>
</g>
<!-- carbon_core_module&#45;&gt;carbon -->
<g id="edge7" class="edge">
<title>carbon_core_module&#45;&gt;carbon</title><style>.edge>path:hover{stroke-width:8}</style>
<path fill="none" stroke="black" d="M120.17,-165.84C122.82,-142.23 129.6,-102.05 146.55,-72 152.54,-61.39 161.23,-51.46 169.85,-43.12"/>
<polygon fill="blue" stroke="black" points="172.35,-45.58 177.34,-36.23 167.61,-40.43 172.35,-45.58"/>
</g>
<!-- carbon_core_module&#45;&gt;carbon_core_execution -->
<g id="edge9" class="edge">
<title>carbon_core_module&#45;&gt;carbon_core_execution</title><style>.edge>path:hover{stroke-width:8}</style>
<path fill="none" stroke="black" d="M103.39,-165.7C96.44,-156.64 88.02,-145.66 80.15,-135.38"/>
<polygon fill="blue" stroke="black" points="82.84,-133.14 73.98,-127.34 77.29,-137.4 82.84,-133.14"/>
</g>
<!-- carbon_core_utilities -->
<g id="node7" class="node">
<title>carbon_core_utilities</title><style>.edge>path:hover{stroke-width:8}</style>
<ellipse fill="#ce3b3b" stroke="black" cx="110.55" cy="-425.97" rx="37.45" ry="28.98"/>
<text text-anchor="middle" x="110.55" y="-434.47" font-family="Helvetica,sans-Serif" font-size="10.00" fill="#ffffff">carbon.</text>
<text text-anchor="middle" x="110.55" y="-423.47" font-family="Helvetica,sans-Serif" font-size="10.00" fill="#ffffff">core.</text>
<text text-anchor="middle" x="110.55" y="-412.47" font-family="Helvetica,sans-Serif" font-size="10.00" fill="#ffffff">utilities</text>
</g>
<!-- carbon_core_utilities&#45;&gt;carbon_core_connection -->
<g id="edge10" class="edge">
<title>carbon_core_utilities&#45;&gt;carbon_core_connection</title><style>.edge>path:hover{stroke-width:8}</style>
<path fill="none" stroke="black" d="M117.23,-397.37C119.79,-386.14 122.56,-372.99 124.55,-360.98 128.24,-338.77 131.07,-313.47 132.94,-294.35"/>
<polygon fill="#ce3b3b" stroke="black" points="136.45,-294.44 133.9,-284.16 129.48,-293.78 136.45,-294.44"/>
</g>
<!-- carbon_core_utilities&#45;&gt;carbon_core_datamethod -->
<g id="edge11" class="edge">
<title>carbon_core_utilities&#45;&gt;carbon_core_datamethod</title><style>.edge>path:hover{stroke-width:8}</style>
<path fill="none" stroke="black" d="M99.93,-398.1C96.44,-389.28 92.55,-379.43 89.01,-370.46"/>
<polygon fill="#ce3b3b" stroke="black" points="92.26,-369.17 85.33,-361.16 85.75,-371.75 92.26,-369.17"/>
</g>
<!-- carbon_data -->
<g id="node8" class="node">
<title>carbon_data</title><style>.edge>path:hover{stroke-width:8}</style>
<polygon fill="blue" stroke="black" points="175.55,-526.97 101.55,-526.97 101.55,-490.97 175.55,-490.97 175.55,-526.97"/>
<text text-anchor="middle" x="138.55" y="-506.47" font-family="Helvetica,sans-Serif" font-size="10.00" fill="white">carbon.data</text>
</g>
<!-- carbon_data&#45;&gt;carbon -->
<g id="edge12" class="edge">
<title>carbon_data&#45;&gt;carbon</title><style>.edge>path:hover{stroke-width:8}</style>
<path fill="none" stroke="black" d="M271.55,-339.48C257.2,-273.47 249.87,-251.47 271.55,-187.48"/>
</g>
<!-- carbon_data&#45;&gt;carbon_core_connection -->
<g id="edge13" class="edge">
<title>carbon_data&#45;&gt;carbon_core_connection</title><style>.edge>path:hover{stroke-width:8}</style>
<path fill="none" stroke="black" d="M170.29,-490.75C216.82,-462.98 295.57,-404.97 271.55,-341.48"/>
<path fill="none" stroke="black" d="M271.55,-339.48C262.86,-299.5 216.69,-280.57 180.53,-271.78"/>
<polygon fill="blue" stroke="black" points="181.16,-268.33 170.63,-269.56 179.63,-275.16 181.16,-268.33"/>
</g>
<!-- carbon_data&#45;&gt;carbon_core_datamethod -->
<g id="edge14" class="edge">
<title>carbon_data&#45;&gt;carbon_core_datamethod</title><style>.edge>path:hover{stroke-width:8}</style>
<path fill="none" stroke="black" d="M11.55,-424.97C4.52,-403.17 19.79,-382.89 37.4,-367.79"/>
<polygon fill="blue" stroke="black" points="39.98,-370.21 45.59,-361.22 35.6,-364.75 39.98,-370.21"/>
</g>
<!-- carbon_data&#45;&gt;carbon_core_module -->
<g id="edge15" class="edge">
<title>carbon_data&#45;&gt;carbon_core_module</title><style>.edge>path:hover{stroke-width:8}</style>
<path fill="none" stroke="black" d="M101.28,-498.32C68.49,-487.38 24.07,-465.8 11.55,-426.97"/>
<path fill="none" stroke="black" d="M11.55,-424.97C-13.8,-346.33 5.13,-312.65 49.55,-242.98 58.01,-229.71 70.74,-218.18 82.97,-209.12"/>
<polygon fill="blue" stroke="black" points="85.14,-211.87 91.3,-203.25 81.11,-206.15 85.14,-211.87"/>
</g>
<!-- carbon_data_data -->
<g id="node9" class="node">
<title>carbon_data_data</title><style>.edge>path:hover{stroke-width:8}</style>
<polygon fill="blue" stroke="black" points="138.55,-603.97 84.55,-603.97 84.55,-562.97 138.55,-562.97 138.55,-603.97"/>
<text text-anchor="middle" x="111.55" y="-591.97" font-family="Helvetica,sans-Serif" font-size="10.00" fill="white">carbon.</text>
<text text-anchor="middle" x="111.55" y="-580.97" font-family="Helvetica,sans-Serif" font-size="10.00" fill="white">data.</text>
<text text-anchor="middle" x="111.55" y="-569.97" font-family="Helvetica,sans-Serif" font-size="10.00" fill="white">data</text>
</g>
<!-- carbon_data_data&#45;&gt;carbon_data -->
<g id="edge16" class="edge">
<title>carbon_data_data&#45;&gt;carbon_data</title><style>.edge>path:hover{stroke-width:8}</style>
<path fill="none" stroke="black" d="M118.93,-562.65C121.89,-554.7 125.35,-545.4 128.54,-536.85"/>
<polygon fill="blue" stroke="black" points="131.89,-537.88 132.1,-527.28 125.33,-535.43 131.89,-537.88"/>
</g>
<!-- carbon_data_data_utilities -->
<g id="node10" class="node">
<title>carbon_data_data_utilities</title><style>.edge>path:hover{stroke-width:8}</style>
<ellipse fill="#ce3b3b" stroke="black" cx="138.55" cy="-668.96" rx="56.64" ry="28.98"/>
<text text-anchor="middle" x="138.55" y="-677.46" font-family="Helvetica,sans-Serif" font-size="10.00" fill="#ffffff">carbon.</text>
<text text-anchor="middle" x="138.55" y="-666.46" font-family="Helvetica,sans-Serif" font-size="10.00" fill="#ffffff">data.</text>
<text text-anchor="middle" x="138.55" y="-655.46" font-family="Helvetica,sans-Serif" font-size="10.00" fill="#ffffff">data_utilities</text>
</g>
<!-- carbon_data_data_utilities&#45;&gt;carbon_data -->
<g id="edge17" class="edge">
<title>carbon_data_data_utilities&#45;&gt;carbon_data</title><style>.edge>path:hover{stroke-width:8}</style>
<path fill="none" stroke="black" d="M143.35,-640.01C145.04,-628.84 146.72,-615.83 147.55,-603.97 148.82,-585.79 149.08,-581.12 147.55,-562.97 146.84,-554.46 145.48,-545.28 144.04,-536.98"/>
<polygon fill="#ce3b3b" stroke="black" points="147.47,-536.25 142.21,-527.06 140.58,-537.53 147.47,-536.25"/>
</g>
<!-- carbon_data_data_utilities&#45;&gt;carbon_data_data -->
<g id="edge18" class="edge">
<title>carbon_data_data_utilities&#45;&gt;carbon_data_data</title><style>.edge>path:hover{stroke-width:8}</style>
<path fill="none" stroke="black" d="M129.56,-640.16C126.81,-631.63 123.77,-622.23 120.98,-613.62"/>
<polygon fill="#ce3b3b" stroke="black" points="124.27,-612.41 117.86,-603.97 117.61,-614.56 124.27,-612.41"/>
</g>
</g>
</svg>
