<?xml version="1.0" encoding="UTF-8" standalone="no"?>
<!DOCTYPE svg PUBLIC "-//W3C//DTD SVG 1.1//EN"
 "http://www.w3.org/Graphics/SVG/1.1/DTD/svg11.dtd">
<!-- Generated by graphviz version 2.43.0 (0)
 -->
<!-- Title: G Pages: 1 -->
<svg width="418pt" height="181pt"
 viewBox="0.00 0.00 418.24 181.41" xmlns="http://www.w3.org/2000/svg" xmlns:xlink="http://www.w3.org/1999/xlink">
<g id="graph0" class="graph" transform="scale(1 1) rotate(0) translate(4 177.41)">
<title>G</title><style>.edge>path:hover{stroke-width:8}</style>
<polygon fill="white" stroke="transparent" points="-4,4 -4,-177.41 414.24,-177.41 414.24,4 -4,4"/>
<!-- carbon -->
<g id="node1" class="node">
<title>carbon</title><style>.edge>path:hover{stroke-width:8}</style>
<ellipse fill="#b42d2d" stroke="black" cx="109.5" cy="-21.21" rx="29.37" ry="18"/>
<text text-anchor="middle" x="109.5" y="-18.71" font-family="Helvetica,sans-Serif" font-size="10.00" fill="#ffffff">carbon</text>
</g>
<!-- carbon_core_connection -->
<g id="node2" class="node">
<title>carbon_core_connection</title><style>.edge>path:hover{stroke-width:8}</style>
<ellipse fill="#b65353" stroke="black" cx="49.5" cy="-144.42" rx="49.49" ry="28.98"/>
<text text-anchor="middle" x="49.5" y="-152.92" font-family="Helvetica,sans-Serif" font-size="10.00" fill="#ffffff">carbon.</text>
<text text-anchor="middle" x="49.5" y="-141.92" font-family="Helvetica,sans-Serif" font-size="10.00" fill="#ffffff">core.</text>
<text text-anchor="middle" x="49.5" y="-130.92" font-family="Helvetica,sans-Serif" font-size="10.00" fill="#ffffff">connection</text>
</g>
<!-- carbon_core_connection&#45;&gt;carbon -->
<g id="edge1" class="edge">
<title>carbon_core_connection&#45;&gt;carbon</title><style>.edge>path:hover{stroke-width:8}</style>
<path fill="none" stroke="black" d="M62.96,-116.22C73.12,-95.7 86.95,-67.77 96.89,-47.69"/>
<polygon fill="#b65353" stroke="black" points="100.12,-49.04 101.42,-38.53 93.85,-45.94 100.12,-49.04"/>
</g>
<!-- carbon_core_data -->
<g id="node3" class="node">
<title>carbon_core_data</title><style>.edge>path:hover{stroke-width:8}</style>
<ellipse fill="#c24747" stroke="black" cx="154.5" cy="-144.42" rx="37.45" ry="28.98"/>
<text text-anchor="middle" x="154.5" y="-152.92" font-family="Helvetica,sans-Serif" font-size="10.00" fill="#ffffff">carbon.</text>
<text text-anchor="middle" x="154.5" y="-141.92" font-family="Helvetica,sans-Serif" font-size="10.00" fill="#ffffff">core.</text>
<text text-anchor="middle" x="154.5" y="-130.92" font-family="Helvetica,sans-Serif" font-size="10.00" fill="#ffffff">data</text>
</g>
<!-- carbon_core_data&#45;&gt;carbon -->
<g id="edge2" class="edge">
<title>carbon_core_data&#45;&gt;carbon</title><style>.edge>path:hover{stroke-width:8}</style>
<path fill="none" stroke="black" d="M163.27,-115.99C166.13,-104.77 168.56,-91.59 168.5,-79.43"/>
<path fill="none" stroke="black" d="M168.5,-78.43C168.4,-61.2 155.06,-47.65 141.08,-38.17"/>
<polygon fill="#c24747" stroke="black" points="142.76,-35.09 132.42,-32.8 139.07,-41.04 142.76,-35.09"/>
</g>
<!-- carbon_time -->
<g id="node7" class="node">
<title>carbon_time</title><style>.edge>path:hover{stroke-width:8}</style>
<ellipse fill="#ac4949" stroke="black" cx="201.5" cy="-21.21" rx="44.3" ry="18"/>
<text text-anchor="middle" x="201.5" y="-18.71" font-family="Helvetica,sans-Serif" font-size="10.00" fill="#ffffff">carbon.time</text>
</g>
<!-- carbon_core_data&#45;&gt;carbon_time -->
<g id="edge3" class="edge">
<title>carbon_core_data&#45;&gt;carbon_time</title><style>.edge>path:hover{stroke-width:8}</style>
<path fill="none" stroke="black" d="M168.5,-78.43C168.44,-67.11 173.46,-56.05 179.61,-46.78"/>
<polygon fill="#c24747" stroke="black" points="182.6,-48.62 185.71,-38.49 176.96,-44.46 182.6,-48.62"/>
</g>
<!-- carbon_core_datamethod -->
<g id="node4" class="node">
<title>carbon_core_datamethod</title><style>.edge>path:hover{stroke-width:8}</style>
<ellipse fill="#b65353" stroke="black" cx="356.5" cy="-144.42" rx="53.98" ry="28.98"/>
<text text-anchor="middle" x="356.5" y="-152.92" font-family="Helvetica,sans-Serif" font-size="10.00" fill="#ffffff">carbon.</text>
<text text-anchor="middle" x="356.5" y="-141.92" font-family="Helvetica,sans-Serif" font-size="10.00" fill="#ffffff">core.</text>
<text text-anchor="middle" x="356.5" y="-130.92" font-family="Helvetica,sans-Serif" font-size="10.00" fill="#ffffff">datamethod</text>
</g>
<!-- carbon_execution -->
<g id="node6" class="node">
<title>carbon_execution</title><style>.edge>path:hover{stroke-width:8}</style>
<ellipse fill="#a44646" stroke="black" cx="308.5" cy="-21.21" rx="45.01" ry="21.43"/>
<text text-anchor="middle" x="308.5" y="-24.21" font-family="Helvetica,sans-Serif" font-size="10.00" fill="#ffffff">carbon.</text>
<text text-anchor="middle" x="308.5" y="-13.21" font-family="Helvetica,sans-Serif" font-size="10.00" fill="#ffffff">execution</text>
</g>
<!-- carbon_core_datamethod&#45;&gt;carbon_execution -->
<g id="edge4" class="edge">
<title>carbon_core_datamethod&#45;&gt;carbon_execution</title><style>.edge>path:hover{stroke-width:8}</style>
<path fill="none" stroke="black" d="M345.61,-115.91C338.03,-96.79 327.95,-71.33 320.21,-51.78"/>
<polygon fill="#b65353" stroke="black" points="323.44,-50.44 316.5,-42.43 316.93,-53.02 323.44,-50.44"/>
</g>
<!-- carbon_core_module -->
<g id="node5" class="node">
<title>carbon_core_module</title><style>.edge>path:hover{stroke-width:8}</style>
<ellipse fill="#ce3b3b" stroke="black" cx="247.5" cy="-144.42" rx="37.45" ry="28.98"/>
<text text-anchor="middle" x="247.5" y="-152.92" font-family="Helvetica,sans-Serif" font-size="10.00" fill="#ffffff">carbon.</text>
<text text-anchor="middle" x="247.5" y="-141.92" font-family="Helvetica,sans-Serif" font-size="10.00" fill="#ffffff">core.</text>
<text text-anchor="middle" x="247.5" y="-130.92" font-family="Helvetica,sans-Serif" font-size="10.00" fill="#ffffff">module</text>
</g>
<!-- carbon_core_module&#45;&gt;carbon -->
<g id="edge5" class="edge">
<title>carbon_core_module&#45;&gt;carbon</title><style>.edge>path:hover{stroke-width:8}</style>
<path fill="none" stroke="black" d="M242.73,-115.34C240.45,-104.03 237.37,-90.96 233.5,-79.43"/>
<path fill="none" stroke="black" d="M233.5,-78.43C220.43,-39.54 185.63,-59.88 148.5,-42.43 145.69,-41.11 142.79,-39.7 139.9,-38.26"/>
<polygon fill="#ce3b3b" stroke="black" points="141.31,-35.05 130.8,-33.64 138.13,-41.29 141.31,-35.05"/>
</g>
<!-- carbon_core_module&#45;&gt;carbon_execution -->
<g id="edge6" class="edge">
<title>carbon_core_module&#45;&gt;carbon_execution</title><style>.edge>path:hover{stroke-width:8}</style>
<path fill="none" stroke="black" d="M233.5,-78.43C230.11,-68.35 249.72,-53.91 269.73,-42.2"/>
<polygon fill="#ce3b3b" stroke="black" points="271.59,-45.17 278.57,-37.19 268.14,-39.07 271.59,-45.17"/>
</g>
<!-- carbon_core_module&#45;&gt;carbon_time -->
<g id="edge7" class="edge">
<title>carbon_core_module&#45;&gt;carbon_time</title><style>.edge>path:hover{stroke-width:8}</style>
<path fill="none" stroke="black" d="M233.5,-78.43C229.87,-67.62 224.08,-56.54 218.42,-47.1"/>
<polygon fill="#ce3b3b" stroke="black" points="221.38,-45.24 213.11,-38.63 215.45,-48.96 221.38,-45.24"/>
</g>
</g>
</svg>
