<?xml version="1.0" encoding="UTF-8" standalone="no"?>
<!DOCTYPE svg PUBLIC "-//W3C//DTD SVG 1.1//EN"
 "http://www.w3.org/Graphics/SVG/1.1/DTD/svg11.dtd">
<!-- Generated by graphviz version 2.43.0 (0)
 -->
<!-- Title: G Pages: 1 -->
<svg width="332pt" height="524pt"
 viewBox="0.00 0.00 331.87 524.41" xmlns="http://www.w3.org/2000/svg" xmlns:xlink="http://www.w3.org/1999/xlink">
<g id="graph0" class="graph" transform="scale(1 1) rotate(0) translate(4 520.41)">
<title>G</title><style>.edge>path:hover{stroke-width:8}</style>
<polygon fill="white" stroke="transparent" points="-4,4 -4,-520.41 327.87,-520.41 327.87,4 -4,4"/>
<!-- carbon -->
<g id="node1" class="node">
<title>carbon</title><style>.edge>path:hover{stroke-width:8}</style>
<polygon fill="blue" stroke="black" points="91.72,-39.21 37.72,-39.21 37.72,-3.21 91.72,-3.21 91.72,-39.21"/>
<text text-anchor="middle" x="64.72" y="-18.71" font-family="Helvetica,sans-Serif" font-size="10.00" fill="white">carbon</text>
</g>
<!-- carbon_core -->
<g id="node2" class="node">
<title>carbon_core</title><style>.edge>path:hover{stroke-width:8}</style>
<ellipse fill="#f91010" stroke="black" cx="226.72" cy="-96.43" rx="43.62" ry="18"/>
<text text-anchor="middle" x="226.72" y="-93.93" font-family="Helvetica,sans-Serif" font-size="10.00" fill="#ffffff">carbon.core</text>
</g>
<!-- carbon_core&#45;&gt;carbon -->
<g id="edge1" class="edge">
<title>carbon_core&#45;&gt;carbon</title><style>.edge>path:hover{stroke-width:8}</style>
<path fill="none" stroke="black" d="M195.99,-83.63C172.23,-74.27 138.4,-60.4 101.51,-42.6"/>
<polygon fill="#f91010" stroke="black" points="102.59,-39.23 92.07,-37.99 99.52,-45.52 102.59,-39.23"/>
</g>
<!-- carbon_execution -->
<g id="node8" class="node">
<title>carbon_execution</title><style>.edge>path:hover{stroke-width:8}</style>
<ellipse fill="#9d4343" stroke="black" cx="154.72" cy="-21.21" rx="45.01" ry="21.43"/>
<text text-anchor="middle" x="154.72" y="-24.21" font-family="Helvetica,sans-Serif" font-size="10.00" fill="#ffffff">carbon.</text>
<text text-anchor="middle" x="154.72" y="-13.21" font-family="Helvetica,sans-Serif" font-size="10.00" fill="#ffffff">execution</text>
</g>
<!-- carbon_core&#45;&gt;carbon_execution -->
<g id="edge2" class="edge">
<title>carbon_core&#45;&gt;carbon_execution</title><style>.edge>path:hover{stroke-width:8}</style>
<path fill="none" stroke="black" d="M211.1,-79.54C202.05,-70.34 190.43,-58.52 180.1,-48.02"/>
<polygon fill="#f91010" stroke="black" points="182.36,-45.33 172.86,-40.65 177.37,-50.24 182.36,-45.33"/>
</g>
<!-- carbon_time -->
<g id="node9" class="node">
<title>carbon_time</title><style>.edge>path:hover{stroke-width:8}</style>
<ellipse fill="#9d4343" stroke="black" cx="279.72" cy="-21.21" rx="44.3" ry="18"/>
<text text-anchor="middle" x="279.72" y="-18.71" font-family="Helvetica,sans-Serif" font-size="10.00" fill="#ffffff">carbon.time</text>
</g>
<!-- carbon_core&#45;&gt;carbon_time -->
<g id="edge3" class="edge">
<title>carbon_core&#45;&gt;carbon_time</title><style>.edge>path:hover{stroke-width:8}</style>
<path fill="none" stroke="black" d="M238.75,-78.81C245.53,-69.45 254.12,-57.58 261.69,-47.12"/>
<polygon fill="#f91010" stroke="black" points="264.72,-48.91 267.74,-38.76 259.05,-44.81 264.72,-48.91"/>
</g>
<!-- carbon_core_connection -->
<g id="node3" class="node">
<title>carbon_core_connection</title><style>.edge>path:hover{stroke-width:8}</style>
<polygon fill="blue" stroke="black" points="84.72,-268.43 14.72,-268.43 14.72,-227.43 84.72,-227.43 84.72,-268.43"/>
<text text-anchor="middle" x="49.72" y="-256.43" font-family="Helvetica,sans-Serif" font-size="10.00" fill="white">carbon.</text>
<text text-anchor="middle" x="49.72" y="-245.43" font-family="Helvetica,sans-Serif" font-size="10.00" fill="white">core.</text>
<text text-anchor="middle" x="49.72" y="-234.43" font-family="Helvetica,sans-Serif" font-size="10.00" fill="white">connection</text>
</g>
<!-- carbon_core_connection&#45;&gt;carbon -->
<g id="edge4" class="edge">
<title>carbon_core_connection&#45;&gt;carbon</title><style>.edge>path:hover{stroke-width:8}</style>
<path fill="none" stroke="black" d="M47.67,-227.3C46.56,-212.05 46.08,-190.45 49.72,-171.93"/>
</g>
<!-- carbon_core_module -->
<g id="node7" class="node">
<title>carbon_core_module</title><style>.edge>path:hover{stroke-width:8}</style>
<polygon fill="blue" stroke="black" points="131.72,-191.43 77.72,-191.43 77.72,-150.43 131.72,-150.43 131.72,-191.43"/>
<text text-anchor="middle" x="104.72" y="-179.43" font-family="Helvetica,sans-Serif" font-size="10.00" fill="white">carbon.</text>
<text text-anchor="middle" x="104.72" y="-168.43" font-family="Helvetica,sans-Serif" font-size="10.00" fill="white">core.</text>
<text text-anchor="middle" x="104.72" y="-157.43" font-family="Helvetica,sans-Serif" font-size="10.00" fill="white">module</text>
</g>
<!-- carbon_core_connection&#45;&gt;carbon_core_module -->
<g id="edge5" class="edge">
<title>carbon_core_connection&#45;&gt;carbon_core_module</title><style>.edge>path:hover{stroke-width:8}</style>
<path fill="none" stroke="black" d="M70.13,-219.1C74.76,-212.79 79.67,-206.09 84.29,-199.79"/>
<polygon fill="blue" stroke="black" points="67.27,-217.09 64.17,-227.22 72.91,-221.23 67.27,-217.09"/>
<polygon fill="blue" stroke="black" points="87.28,-201.63 90.37,-191.5 81.63,-197.49 87.28,-201.63"/>
</g>
<!-- carbon_core_data -->
<g id="node4" class="node">
<title>carbon_core_data</title><style>.edge>path:hover{stroke-width:8}</style>
<polygon fill="blue" stroke="black" points="186.72,-422.43 132.72,-422.43 132.72,-381.43 186.72,-381.43 186.72,-422.43"/>
<text text-anchor="middle" x="159.72" y="-410.43" font-family="Helvetica,sans-Serif" font-size="10.00" fill="white">carbon.</text>
<text text-anchor="middle" x="159.72" y="-399.43" font-family="Helvetica,sans-Serif" font-size="10.00" fill="white">core.</text>
<text text-anchor="middle" x="159.72" y="-388.43" font-family="Helvetica,sans-Serif" font-size="10.00" fill="white">data</text>
</g>
<!-- carbon_core_data&#45;&gt;carbon -->
<g id="edge6" class="edge">
<title>carbon_core_data&#45;&gt;carbon</title><style>.edge>path:hover{stroke-width:8}</style>
<path fill="none" stroke="black" d="M140.84,-381.33C127.09,-366.63 108.39,-345.72 93.72,-325.93"/>
<path fill="none" stroke="black" d="M93.72,-323.93C66.2,-286.77 28.06,-308.92 5.72,-268.43 -3.08,-252.47 -0.27,-244.63 5.72,-227.43 16.08,-197.7 43.65,-202.81 49.72,-171.93"/>
<path fill="none" stroke="black" d="M49.72,-169.93C55.83,-128.13 60.27,-79.31 62.67,-49.59"/>
<polygon fill="blue" stroke="black" points="66.16,-49.8 63.46,-39.56 59.18,-49.25 66.16,-49.8"/>
</g>
<!-- carbon_core_data&#45;&gt;carbon_core_connection -->
<g id="edge7" class="edge">
<title>carbon_core_data&#45;&gt;carbon_core_connection</title><style>.edge>path:hover{stroke-width:8}</style>
<path fill="none" stroke="black" d="M93.72,-323.93C83.31,-309.15 73.01,-291.78 64.99,-277.48"/>
<polygon fill="blue" stroke="black" points="67.98,-275.65 60.08,-268.59 61.85,-279.03 67.98,-275.65"/>
</g>
<!-- carbon_core_datamethod -->
<g id="node6" class="node">
<title>carbon_core_datamethod</title><style>.edge>path:hover{stroke-width:8}</style>
<polygon fill="blue" stroke="black" points="197.72,-345.43 121.72,-345.43 121.72,-304.43 197.72,-304.43 197.72,-345.43"/>
<text text-anchor="middle" x="159.72" y="-333.43" font-family="Helvetica,sans-Serif" font-size="10.00" fill="white">carbon.</text>
<text text-anchor="middle" x="159.72" y="-322.43" font-family="Helvetica,sans-Serif" font-size="10.00" fill="white">core.</text>
<text text-anchor="middle" x="159.72" y="-311.43" font-family="Helvetica,sans-Serif" font-size="10.00" fill="white">datamethod</text>
</g>
<!-- carbon_core_data&#45;&gt;carbon_core_datamethod -->
<g id="edge8" class="edge">
<title>carbon_core_data&#45;&gt;carbon_core_datamethod</title><style>.edge>path:hover{stroke-width:8}</style>
<path fill="none" stroke="black" d="M159.72,-381.22C159.72,-373.38 159.72,-364.2 159.72,-355.59"/>
<polygon fill="blue" stroke="black" points="163.22,-355.5 159.72,-345.5 156.22,-355.5 163.22,-355.5"/>
</g>
<!-- carbon_core_data&#45;&gt;carbon_core_module -->
<g id="edge9" class="edge">
<title>carbon_core_data&#45;&gt;carbon_core_module</title><style>.edge>path:hover{stroke-width:8}</style>
<path fill="none" stroke="black" d="M93.72,-323.93C90.26,-319.02 97.25,-244.58 101.6,-201.73"/>
<polygon fill="blue" stroke="black" points="105.1,-201.88 102.64,-191.58 98.14,-201.17 105.1,-201.88"/>
</g>
<!-- carbon_core_data&#45;&gt;carbon_time -->
<g id="edge10" class="edge">
<title>carbon_core_data&#45;&gt;carbon_time</title><style>.edge>path:hover{stroke-width:8}</style>
<path fill="none" stroke="black" d="M179.18,-381.4C188.45,-371.3 199.14,-358.4 206.72,-345.43 266.05,-243.93 260.16,-208.48 298.72,-97.43"/>
</g>
<!-- carbon_core_data_utilities -->
<g id="node5" class="node">
<title>carbon_core_data_utilities</title><style>.edge>path:hover{stroke-width:8}</style>
<ellipse fill="#c24747" stroke="black" cx="159.72" cy="-487.42" rx="56.64" ry="28.98"/>
<text text-anchor="middle" x="159.72" y="-495.92" font-family="Helvetica,sans-Serif" font-size="10.00" fill="#ffffff">carbon.</text>
<text text-anchor="middle" x="159.72" y="-484.92" font-family="Helvetica,sans-Serif" font-size="10.00" fill="#ffffff">core.</text>
<text text-anchor="middle" x="159.72" y="-473.92" font-family="Helvetica,sans-Serif" font-size="10.00" fill="#ffffff">data_utilities</text>
</g>
<!-- carbon_core_data_utilities&#45;&gt;carbon_core_data -->
<g id="edge11" class="edge">
<title>carbon_core_data_utilities&#45;&gt;carbon_core_data</title><style>.edge>path:hover{stroke-width:8}</style>
<path fill="none" stroke="black" d="M159.72,-458.15C159.72,-449.9 159.72,-440.87 159.72,-432.54"/>
<polygon fill="#c24747" stroke="black" points="163.22,-432.48 159.72,-422.48 156.22,-432.48 163.22,-432.48"/>
</g>
<!-- carbon_core_datamethod&#45;&gt;carbon_core_connection -->
<g id="edge12" class="edge">
<title>carbon_core_datamethod&#45;&gt;carbon_core_connection</title><style>.edge>path:hover{stroke-width:8}</style>
<path fill="none" stroke="black" d="M131.11,-304.42C117.72,-295.29 101.6,-284.29 87.24,-274.51"/>
<polygon fill="blue" stroke="black" points="88.81,-271.34 78.58,-268.6 84.87,-277.12 88.81,-271.34"/>
</g>
<!-- carbon_core_datamethod&#45;&gt;carbon_core_module -->
<g id="edge13" class="edge">
<title>carbon_core_datamethod&#45;&gt;carbon_core_module</title><style>.edge>path:hover{stroke-width:8}</style>
<path fill="none" stroke="black" d="M161.54,-304.35C162.52,-289.12 162.95,-267.53 159.72,-248.93"/>
<path fill="none" stroke="black" d="M159.72,-246.93C156.62,-229.01 145.6,-212.34 134.23,-199.29"/>
<polygon fill="blue" stroke="black" points="136.54,-196.62 127.18,-191.65 131.39,-201.37 136.54,-196.62"/>
</g>
<!-- carbon_core_datamethod&#45;&gt;carbon_execution -->
<g id="edge14" class="edge">
<title>carbon_core_datamethod&#45;&gt;carbon_execution</title><style>.edge>path:hover{stroke-width:8}</style>
<path fill="none" stroke="black" d="M159.72,-246.93C147.84,-178.34 150.09,-96.23 152.55,-52.74"/>
<polygon fill="blue" stroke="black" points="156.05,-52.75 153.17,-42.55 149.07,-52.32 156.05,-52.75"/>
</g>
<!-- carbon_core_module&#45;&gt;carbon -->
<g id="edge15" class="edge">
<title>carbon_core_module&#45;&gt;carbon</title><style>.edge>path:hover{stroke-width:8}</style>
<path fill="none" stroke="black" d="M106.04,-150.24C106.96,-135.67 108.12,-115.32 108.72,-97.43"/>
<path fill="none" stroke="black" d="M108.72,-95.43C109.32,-77.63 99.68,-60.42 89.27,-47.16"/>
<polygon fill="blue" stroke="black" points="91.89,-44.84 82.77,-39.45 86.54,-49.35 91.89,-44.84"/>
</g>
<!-- carbon_core_module&#45;&gt;carbon_execution -->
<g id="edge17" class="edge">
<title>carbon_core_module&#45;&gt;carbon_execution</title><style>.edge>path:hover{stroke-width:8}</style>
<path fill="none" stroke="black" d="M108.72,-95.43C109.3,-78.07 118.75,-61.46 128.93,-48.45"/>
<polygon fill="blue" stroke="black" points="131.9,-50.37 135.64,-40.46 126.53,-45.86 131.9,-50.37"/>
</g>
<!-- carbon_core_module&#45;&gt;carbon_time -->
<g id="edge18" class="edge">
<title>carbon_core_module&#45;&gt;carbon_time</title><style>.edge>path:hover{stroke-width:8}</style>
<path fill="none" stroke="black" d="M131.91,-170.82C179.8,-170.68 276.26,-162.13 298.72,-97.43"/>
<path fill="none" stroke="black" d="M298.72,-95.43C304.08,-80.01 299.75,-62.3 293.88,-48.16"/>
<polygon fill="blue" stroke="black" points="297.04,-46.64 289.68,-39.01 290.68,-49.56 297.04,-46.64"/>
</g>
</g>
</svg>
