<?xml version="1.0" encoding="UTF-8" standalone="no"?>
<!DOCTYPE svg PUBLIC "-//W3C//DTD SVG 1.1//EN"
 "http://www.w3.org/Graphics/SVG/1.1/DTD/svg11.dtd">
<!-- Generated by graphviz version 2.43.0 (0)
 -->
<!-- Title: G Pages: 1 -->
<svg width="177pt" height="833pt"
 viewBox="0.00 0.00 176.64 832.97" xmlns="http://www.w3.org/2000/svg" xmlns:xlink="http://www.w3.org/1999/xlink">
<g id="graph0" class="graph" transform="scale(1 1) rotate(0) translate(4 828.97)">
<title>G</title><style>.edge>path:hover{stroke-width:8}</style>
<polygon fill="white" stroke="transparent" points="-4,4 -4,-828.97 172.64,-828.97 172.64,4 -4,4"/>
<!-- carbon -->
<g id="node1" class="node">
<title>carbon</title><style>.edge>path:hover{stroke-width:8}</style>
<polygon fill="blue" stroke="black" points="158,-108 104,-108 104,-72 158,-72 158,-108"/>
<text text-anchor="middle" x="131" y="-87.5" font-family="Helvetica,sans-Serif" font-size="10.00" fill="white">carbon</text>
</g>
<!-- test -->
<g id="node11" class="node">
<title>test</title><style>.edge>path:hover{stroke-width:8}</style>
<ellipse fill="#59a6a6" stroke="black" cx="131" cy="-18" rx="27" ry="18"/>
<text text-anchor="middle" x="131" y="-15.5" font-family="Helvetica,sans-Serif" font-size="10.00" fill="#000000">test</text>
</g>
<!-- carbon&#45;&gt;test -->
<g id="edge1" class="edge">
<title>carbon&#45;&gt;test</title><style>.edge>path:hover{stroke-width:8}</style>
<path fill="none" stroke="black" d="M131,-71.7C131,-63.98 131,-54.71 131,-46.11"/>
<polygon fill="blue" stroke="black" points="134.5,-46.1 131,-36.1 127.5,-46.1 134.5,-46.1"/>
</g>
<!-- carbon_core -->
<g id="node2" class="node">
<title>carbon_core</title><style>.edge>path:hover{stroke-width:8}</style>
<polygon fill="blue" stroke="black" points="135,-180 61,-180 61,-144 135,-144 135,-180"/>
<text text-anchor="middle" x="98" y="-159.5" font-family="Helvetica,sans-Serif" font-size="10.00" fill="white">carbon.core</text>
</g>
<!-- carbon_core&#45;&gt;carbon -->
<g id="edge2" class="edge">
<title>carbon_core&#45;&gt;carbon</title><style>.edge>path:hover{stroke-width:8}</style>
<path fill="none" stroke="black" d="M106.16,-143.7C109.91,-135.73 114.45,-126.1 118.62,-117.26"/>
<polygon fill="blue" stroke="black" points="121.84,-118.64 122.94,-108.1 115.51,-115.66 121.84,-118.64"/>
</g>
<!-- carbon_core_connection -->
<g id="node3" class="node">
<title>carbon_core_connection</title><style>.edge>path:hover{stroke-width:8}</style>
<polygon fill="blue" stroke="black" points="136,-411 66,-411 66,-370 136,-370 136,-411"/>
<text text-anchor="middle" x="101" y="-399" font-family="Helvetica,sans-Serif" font-size="10.00" fill="white">carbon.</text>
<text text-anchor="middle" x="101" y="-388" font-family="Helvetica,sans-Serif" font-size="10.00" fill="white">core.</text>
<text text-anchor="middle" x="101" y="-377" font-family="Helvetica,sans-Serif" font-size="10.00" fill="white">connection</text>
</g>
<!-- carbon_core_module -->
<g id="node6" class="node">
<title>carbon_core_module</title><style>.edge>path:hover{stroke-width:8}</style>
<polygon fill="blue" stroke="black" points="120,-334 66,-334 66,-293 120,-293 120,-334"/>
<text text-anchor="middle" x="93" y="-322" font-family="Helvetica,sans-Serif" font-size="10.00" fill="white">carbon.</text>
<text text-anchor="middle" x="93" y="-311" font-family="Helvetica,sans-Serif" font-size="10.00" fill="white">core.</text>
<text text-anchor="middle" x="93" y="-300" font-family="Helvetica,sans-Serif" font-size="10.00" fill="white">module</text>
</g>
<!-- carbon_core_connection&#45;&gt;carbon_core_module -->
<g id="edge3" class="edge">
<title>carbon_core_connection&#45;&gt;carbon_core_module</title><style>.edge>path:hover{stroke-width:8}</style>
<path fill="none" stroke="black" d="M98.9,-369.79C98.06,-361.96 97.08,-352.77 96.16,-344.16"/>
<polygon fill="blue" stroke="black" points="99.63,-343.65 95.09,-334.07 92.67,-344.39 99.63,-343.65"/>
</g>
<!-- carbon_core_datamethod -->
<g id="node4" class="node">
<title>carbon_core_datamethod</title><style>.edge>path:hover{stroke-width:8}</style>
<polygon fill="blue" stroke="black" points="76,-488 0,-488 0,-447 76,-447 76,-488"/>
<text text-anchor="middle" x="38" y="-476" font-family="Helvetica,sans-Serif" font-size="10.00" fill="white">carbon.</text>
<text text-anchor="middle" x="38" y="-465" font-family="Helvetica,sans-Serif" font-size="10.00" fill="white">core.</text>
<text text-anchor="middle" x="38" y="-454" font-family="Helvetica,sans-Serif" font-size="10.00" fill="white">datamethod</text>
</g>
<!-- carbon_core_datamethod&#45;&gt;carbon_core_connection -->
<g id="edge4" class="edge">
<title>carbon_core_datamethod&#45;&gt;carbon_core_connection</title><style>.edge>path:hover{stroke-width:8}</style>
<path fill="none" stroke="black" d="M54.55,-446.79C61.71,-438.27 70.22,-428.14 77.98,-418.9"/>
<polygon fill="blue" stroke="black" points="80.81,-420.98 84.56,-411.07 75.45,-416.48 80.81,-420.98"/>
</g>
<!-- carbon_core_execution -->
<g id="node5" class="node">
<title>carbon_core_execution</title><style>.edge>path:hover{stroke-width:8}</style>
<polygon fill="blue" stroke="black" points="70,-257 6,-257 6,-216 70,-216 70,-257"/>
<text text-anchor="middle" x="38" y="-245" font-family="Helvetica,sans-Serif" font-size="10.00" fill="white">carbon.</text>
<text text-anchor="middle" x="38" y="-234" font-family="Helvetica,sans-Serif" font-size="10.00" fill="white">core.</text>
<text text-anchor="middle" x="38" y="-223" font-family="Helvetica,sans-Serif" font-size="10.00" fill="white">execution</text>
</g>
<!-- carbon_core_datamethod&#45;&gt;carbon_core_execution -->
<g id="edge5" class="edge">
<title>carbon_core_datamethod&#45;&gt;carbon_core_execution</title><style>.edge>path:hover{stroke-width:8}</style>
<path fill="none" stroke="black" d="M36.18,-446.92C35.21,-431.69 34.78,-410.1 38,-391.5"/>
<path fill="none" stroke="black" d="M38,-389.5C45.25,-347.63 43.38,-298.3 41,-267.46"/>
<polygon fill="blue" stroke="black" points="44.47,-267.03 40.14,-257.36 37.5,-267.62 44.47,-267.03"/>
</g>
<!-- carbon_core_datamethod&#45;&gt;carbon_core_module -->
<g id="edge6" class="edge">
<title>carbon_core_datamethod&#45;&gt;carbon_core_module</title><style>.edge>path:hover{stroke-width:8}</style>
<path fill="none" stroke="black" d="M38,-389.5C41.1,-371.58 52.12,-354.91 63.49,-341.86"/>
<polygon fill="blue" stroke="black" points="66.33,-343.95 70.55,-334.23 61.19,-339.2 66.33,-343.95"/>
</g>
<!-- carbon_core_execution&#45;&gt;carbon_core -->
<g id="edge7" class="edge">
<title>carbon_core_execution&#45;&gt;carbon_core</title><style>.edge>path:hover{stroke-width:8}</style>
<path fill="none" stroke="black" d="M54.4,-215.69C61.41,-207.21 69.68,-197.22 77.12,-188.23"/>
<polygon fill="blue" stroke="black" points="79.99,-190.25 83.67,-180.32 74.59,-185.79 79.99,-190.25"/>
</g>
<!-- carbon_core_module&#45;&gt;carbon_core -->
<g id="edge8" class="edge">
<title>carbon_core_module&#45;&gt;carbon_core</title><style>.edge>path:hover{stroke-width:8}</style>
<path fill="none" stroke="black" d="M93.65,-292.96C94.53,-266.73 96.09,-220.03 97.09,-190.33"/>
<polygon fill="blue" stroke="black" points="100.59,-190.34 97.42,-180.23 93.59,-190.11 100.59,-190.34"/>
</g>
<!-- carbon_core_module&#45;&gt;carbon_core_execution -->
<g id="edge9" class="edge">
<title>carbon_core_module&#45;&gt;carbon_core_execution</title><style>.edge>path:hover{stroke-width:8}</style>
<path fill="none" stroke="black" d="M78.55,-292.79C72.36,-284.35 65.02,-274.35 58.3,-265.18"/>
<polygon fill="blue" stroke="black" points="61.09,-263.07 52.35,-257.07 55.45,-267.21 61.09,-263.07"/>
</g>
<!-- carbon_core_utilities -->
<g id="node7" class="node">
<title>carbon_core_utilities</title><style>.edge>path:hover{stroke-width:8}</style>
<ellipse fill="#ce3b3b" stroke="black" cx="99" cy="-552.99" rx="37.45" ry="28.98"/>
<text text-anchor="middle" x="99" y="-561.49" font-family="Helvetica,sans-Serif" font-size="10.00" fill="#ffffff">carbon.</text>
<text text-anchor="middle" x="99" y="-550.49" font-family="Helvetica,sans-Serif" font-size="10.00" fill="#ffffff">core.</text>
<text text-anchor="middle" x="99" y="-539.49" font-family="Helvetica,sans-Serif" font-size="10.00" fill="#ffffff">utilities</text>
</g>
<!-- carbon_core_utilities&#45;&gt;carbon_core_connection -->
<g id="edge10" class="edge">
<title>carbon_core_utilities&#45;&gt;carbon_core_connection</title><style>.edge>path:hover{stroke-width:8}</style>
<path fill="none" stroke="black" d="M99.35,-523.67C99.71,-494.98 100.26,-450.76 100.63,-421.49"/>
<polygon fill="#ce3b3b" stroke="black" points="104.13,-421.48 100.75,-411.43 97.13,-421.39 104.13,-421.48"/>
</g>
<!-- carbon_core_utilities&#45;&gt;carbon_core_datamethod -->
<g id="edge11" class="edge">
<title>carbon_core_utilities&#45;&gt;carbon_core_datamethod</title><style>.edge>path:hover{stroke-width:8}</style>
<path fill="none" stroke="black" d="M81.03,-527.39C73.89,-517.62 65.64,-506.33 58.29,-496.27"/>
<polygon fill="#ce3b3b" stroke="black" points="61.09,-494.18 52.37,-488.17 55.44,-498.31 61.09,-494.18"/>
</g>
<!-- carbon_data -->
<g id="node8" class="node">
<title>carbon_data</title><style>.edge>path:hover{stroke-width:8}</style>
<polygon fill="blue" stroke="black" points="136,-653.98 62,-653.98 62,-617.98 136,-617.98 136,-653.98"/>
<text text-anchor="middle" x="99" y="-633.48" font-family="Helvetica,sans-Serif" font-size="10.00" fill="white">carbon.data</text>
</g>
<!-- carbon_data&#45;&gt;carbon -->
<g id="edge12" class="edge">
<title>carbon_data&#45;&gt;carbon</title><style>.edge>path:hover{stroke-width:8}</style>
<path fill="none" stroke="black" d="M164,-389.5C140.54,-282.57 161.54,-252.06 144,-144 142.61,-135.45 140.56,-126.25 138.49,-117.95"/>
<polygon fill="blue" stroke="black" points="141.82,-116.84 135.91,-108.04 135.04,-118.6 141.82,-116.84"/>
</g>
<!-- carbon_data&#45;&gt;carbon_core_connection -->
<g id="edge13" class="edge">
<title>carbon_data&#45;&gt;carbon_core_connection</title><style>.edge>path:hover{stroke-width:8}</style>
<path fill="none" stroke="black" d="M118.41,-617.67C127.92,-608.1 138.66,-595.43 145,-581.98 166.8,-535.72 173.87,-518.68 164,-468.5"/>
<path fill="none" stroke="black" d="M164,-466.5C161.33,-447.78 149.1,-431.18 136.11,-418.38"/>
<polygon fill="blue" stroke="black" points="138.16,-415.51 128.44,-411.3 133.41,-420.65 138.16,-415.51"/>
</g>
<!-- carbon_data&#45;&gt;carbon_core_datamethod -->
<g id="edge14" class="edge">
<title>carbon_data&#45;&gt;carbon_core_datamethod</title><style>.edge>path:hover{stroke-width:8}</style>
<path fill="none" stroke="black" d="M79.4,-617.76C69.84,-608.21 59.1,-595.54 53,-581.98 41.04,-555.43 37.86,-522.08 37.32,-498.43"/>
<polygon fill="blue" stroke="black" points="40.82,-498.27 37.24,-488.3 33.82,-498.33 40.82,-498.27"/>
</g>
<!-- carbon_data&#45;&gt;carbon_core_module -->
<g id="edge15" class="edge">
<title>carbon_data&#45;&gt;carbon_core_module</title><style>.edge>path:hover{stroke-width:8}</style>
<path fill="none" stroke="black" d="M164,-466.5C159.29,-433.5 171.14,-424.06 164,-391.5"/>
<path fill="none" stroke="black" d="M164,-389.5C159.42,-368.62 143.71,-350.92 128.22,-337.97"/>
<polygon fill="blue" stroke="black" points="130.23,-335.09 120.21,-331.64 125.89,-340.58 130.23,-335.09"/>
</g>
<!-- carbon_data_data -->
<g id="node9" class="node">
<title>carbon_data_data</title><style>.edge>path:hover{stroke-width:8}</style>
<polygon fill="blue" stroke="black" points="126,-730.98 72,-730.98 72,-689.98 126,-689.98 126,-730.98"/>
<text text-anchor="middle" x="99" y="-718.98" font-family="Helvetica,sans-Serif" font-size="10.00" fill="white">carbon.</text>
<text text-anchor="middle" x="99" y="-707.98" font-family="Helvetica,sans-Serif" font-size="10.00" fill="white">data.</text>
<text text-anchor="middle" x="99" y="-696.98" font-family="Helvetica,sans-Serif" font-size="10.00" fill="white">data</text>
</g>
<!-- carbon_data_data&#45;&gt;carbon_data -->
<g id="edge16" class="edge">
<title>carbon_data_data&#45;&gt;carbon_data</title><style>.edge>path:hover{stroke-width:8}</style>
<path fill="none" stroke="black" d="M99,-689.67C99,-681.89 99,-672.82 99,-664.43"/>
<polygon fill="blue" stroke="black" points="102.5,-664.3 99,-654.3 95.5,-664.3 102.5,-664.3"/>
</g>
<!-- carbon_data_utilities -->
<g id="node10" class="node">
<title>carbon_data_utilities</title><style>.edge>path:hover{stroke-width:8}</style>
<ellipse fill="#c24747" stroke="black" cx="99" cy="-795.97" rx="37.45" ry="28.98"/>
<text text-anchor="middle" x="99" y="-804.47" font-family="Helvetica,sans-Serif" font-size="10.00" fill="#ffffff">carbon.</text>
<text text-anchor="middle" x="99" y="-793.47" font-family="Helvetica,sans-Serif" font-size="10.00" fill="#ffffff">data.</text>
<text text-anchor="middle" x="99" y="-782.47" font-family="Helvetica,sans-Serif" font-size="10.00" fill="#ffffff">utilities</text>
</g>
<!-- carbon_data_utilities&#45;&gt;carbon_data_data -->
<g id="edge17" class="edge">
<title>carbon_data_utilities&#45;&gt;carbon_data_data</title><style>.edge>path:hover{stroke-width:8}</style>
<path fill="none" stroke="black" d="M99,-766.71C99,-758.46 99,-749.42 99,-741.09"/>
<polygon fill="#c24747" stroke="black" points="102.5,-741.03 99,-731.03 95.5,-741.03 102.5,-741.03"/>
</g>
</g>
</svg>
