<?xml version="1.0" encoding="UTF-8" standalone="no"?>
<!DOCTYPE svg PUBLIC "-//W3C//DTD SVG 1.1//EN"
 "http://www.w3.org/Graphics/SVG/1.1/DTD/svg11.dtd">
<!-- Generated by graphviz version 2.43.0 (0)
 -->
<!-- Title: G Pages: 1 -->
<svg width="335pt" height="689pt"
 viewBox="0.00 0.00 334.53 688.97" xmlns="http://www.w3.org/2000/svg" xmlns:xlink="http://www.w3.org/1999/xlink">
<g id="graph0" class="graph" transform="scale(1 1) rotate(0) translate(4 684.97)">
<title>G</title><style>.edge>path:hover{stroke-width:8}</style>
<polygon fill="white" stroke="transparent" points="-4,4 -4,-684.97 330.53,-684.97 330.53,4 -4,4"/>
<!-- carbon_common_data_types -->
<g id="node1" class="node">
<title>carbon_common_data_types</title><style>.edge>path:hover{stroke-width:8}</style>
<ellipse fill="#ac4949" stroke="black" cx="119.55" cy="-408.99" rx="84.29" ry="21.43"/>
<text text-anchor="middle" x="119.55" y="-411.99" font-family="Helvetica,sans-Serif" font-size="10.00" fill="#ffffff">carbon.</text>
<text text-anchor="middle" x="119.55" y="-400.99" font-family="Helvetica,sans-Serif" font-size="10.00" fill="#ffffff">common_data_types</text>
</g>
<!-- carbon_core -->
<g id="node2" class="node">
<title>carbon_core</title><style>.edge>path:hover{stroke-width:8}</style>
<polygon fill="blue" stroke="black" points="121.55,-36 47.55,-36 47.55,0 121.55,0 121.55,-36"/>
<text text-anchor="middle" x="84.55" y="-15.5" font-family="Helvetica,sans-Serif" font-size="10.00" fill="white">carbon.core</text>
</g>
<!-- carbon_core_connection -->
<g id="node3" class="node">
<title>carbon_core_connection</title><style>.edge>path:hover{stroke-width:8}</style>
<polygon fill="blue" stroke="black" points="151.55,-267 81.55,-267 81.55,-226 151.55,-226 151.55,-267"/>
<text text-anchor="middle" x="116.55" y="-255" font-family="Helvetica,sans-Serif" font-size="10.00" fill="white">carbon.</text>
<text text-anchor="middle" x="116.55" y="-244" font-family="Helvetica,sans-Serif" font-size="10.00" fill="white">core.</text>
<text text-anchor="middle" x="116.55" y="-233" font-family="Helvetica,sans-Serif" font-size="10.00" fill="white">connection</text>
</g>
<!-- carbon_core_module -->
<g id="node6" class="node">
<title>carbon_core_module</title><style>.edge>path:hover{stroke-width:8}</style>
<polygon fill="blue" stroke="black" points="143.55,-190 89.55,-190 89.55,-149 143.55,-149 143.55,-190"/>
<text text-anchor="middle" x="116.55" y="-178" font-family="Helvetica,sans-Serif" font-size="10.00" fill="white">carbon.</text>
<text text-anchor="middle" x="116.55" y="-167" font-family="Helvetica,sans-Serif" font-size="10.00" fill="white">core.</text>
<text text-anchor="middle" x="116.55" y="-156" font-family="Helvetica,sans-Serif" font-size="10.00" fill="white">module</text>
</g>
<!-- carbon_core_connection&#45;&gt;carbon_core_module -->
<g id="edge1" class="edge">
<title>carbon_core_connection&#45;&gt;carbon_core_module</title><style>.edge>path:hover{stroke-width:8}</style>
<path fill="none" stroke="black" d="M116.55,-225.79C116.55,-217.96 116.55,-208.77 116.55,-200.16"/>
<polygon fill="blue" stroke="black" points="120.05,-200.07 116.55,-190.07 113.05,-200.07 120.05,-200.07"/>
</g>
<!-- carbon_core_datamethod -->
<g id="node4" class="node">
<title>carbon_core_datamethod</title><style>.edge>path:hover{stroke-width:8}</style>
<polygon fill="blue" stroke="black" points="111.55,-344 35.55,-344 35.55,-303 111.55,-303 111.55,-344"/>
<text text-anchor="middle" x="73.55" y="-332" font-family="Helvetica,sans-Serif" font-size="10.00" fill="white">carbon.</text>
<text text-anchor="middle" x="73.55" y="-321" font-family="Helvetica,sans-Serif" font-size="10.00" fill="white">core.</text>
<text text-anchor="middle" x="73.55" y="-310" font-family="Helvetica,sans-Serif" font-size="10.00" fill="white">datamethod</text>
</g>
<!-- carbon_core_datamethod&#45;&gt;carbon_core -->
<g id="edge2" class="edge">
<title>carbon_core_datamethod&#45;&gt;carbon_core</title><style>.edge>path:hover{stroke-width:8}</style>
<path fill="none" stroke="black" d="M57.9,-302.95C50.8,-292.84 43.2,-279.94 39.55,-267 28.85,-229.06 9.16,-168.55 43.55,-72 47.12,-61.97 53.38,-52.34 59.95,-44.11"/>
<polygon fill="blue" stroke="black" points="62.71,-46.26 66.53,-36.37 57.38,-41.72 62.71,-46.26"/>
</g>
<!-- carbon_core_datamethod&#45;&gt;carbon_core_connection -->
<g id="edge3" class="edge">
<title>carbon_core_datamethod&#45;&gt;carbon_core_connection</title><style>.edge>path:hover{stroke-width:8}</style>
<path fill="none" stroke="black" d="M84.85,-302.79C89.54,-294.61 95.07,-284.96 100.2,-276.03"/>
<polygon fill="blue" stroke="black" points="103.39,-277.49 105.33,-267.07 97.32,-274.01 103.39,-277.49"/>
</g>
<!-- carbon_core_execution -->
<g id="node5" class="node">
<title>carbon_core_execution</title><style>.edge>path:hover{stroke-width:8}</style>
<polygon fill="blue" stroke="black" points="116.55,-113 52.55,-113 52.55,-72 116.55,-72 116.55,-113"/>
<text text-anchor="middle" x="84.55" y="-101" font-family="Helvetica,sans-Serif" font-size="10.00" fill="white">carbon.</text>
<text text-anchor="middle" x="84.55" y="-90" font-family="Helvetica,sans-Serif" font-size="10.00" fill="white">core.</text>
<text text-anchor="middle" x="84.55" y="-79" font-family="Helvetica,sans-Serif" font-size="10.00" fill="white">execution</text>
</g>
<!-- carbon_core_datamethod&#45;&gt;carbon_core_execution -->
<g id="edge4" class="edge">
<title>carbon_core_datamethod&#45;&gt;carbon_core_execution</title><style>.edge>path:hover{stroke-width:8}</style>
<path fill="none" stroke="black" d="M64.55,-302.8C58.65,-287.88 52.26,-266.73 53.55,-247.5"/>
<path fill="none" stroke="black" d="M53.55,-245.5C56.44,-202.47 67.85,-153.81 75.98,-123.39"/>
<polygon fill="blue" stroke="black" points="79.44,-124 78.7,-113.43 72.69,-122.15 79.44,-124"/>
</g>
<!-- carbon_core_datamethod&#45;&gt;carbon_core_module -->
<g id="edge5" class="edge">
<title>carbon_core_datamethod&#45;&gt;carbon_core_module</title><style>.edge>path:hover{stroke-width:8}</style>
<path fill="none" stroke="black" d="M53.55,-245.5C54.87,-225.89 67.84,-208.7 81.68,-195.74"/>
<polygon fill="blue" stroke="black" points="84.17,-198.21 89.38,-188.98 79.55,-192.94 84.17,-198.21"/>
</g>
<!-- carbon_core_sources_sinks -->
<g id="node7" class="node">
<title>carbon_core_sources_sinks</title><style>.edge>path:hover{stroke-width:8}</style>
<polygon fill="blue" stroke="black" points="293.05,-267 208.05,-267 208.05,-226 293.05,-226 293.05,-267"/>
<text text-anchor="middle" x="250.55" y="-255" font-family="Helvetica,sans-Serif" font-size="10.00" fill="white">carbon.</text>
<text text-anchor="middle" x="250.55" y="-244" font-family="Helvetica,sans-Serif" font-size="10.00" fill="white">core.</text>
<text text-anchor="middle" x="250.55" y="-233" font-family="Helvetica,sans-Serif" font-size="10.00" fill="white">sources_sinks</text>
</g>
<!-- carbon_core_datamethod&#45;&gt;carbon_core_sources_sinks -->
<g id="edge6" class="edge">
<title>carbon_core_datamethod&#45;&gt;carbon_core_sources_sinks</title><style>.edge>path:hover{stroke-width:8}</style>
<path fill="none" stroke="black" d="M111.96,-306.23C137.24,-295.51 170.66,-281.35 198.35,-269.62"/>
<polygon fill="blue" stroke="black" points="200.04,-272.71 207.88,-265.58 197.3,-266.26 200.04,-272.71"/>
</g>
<!-- carbon_core_execution&#45;&gt;carbon_core -->
<g id="edge7" class="edge">
<title>carbon_core_execution&#45;&gt;carbon_core</title><style>.edge>path:hover{stroke-width:8}</style>
<path fill="none" stroke="black" d="M84.55,-71.69C84.55,-63.91 84.55,-54.84 84.55,-46.45"/>
<polygon fill="blue" stroke="black" points="88.05,-46.32 84.55,-36.32 81.05,-46.32 88.05,-46.32"/>
</g>
<!-- carbon_core_module&#45;&gt;carbon_core -->
<g id="edge8" class="edge">
<title>carbon_core_module&#45;&gt;carbon_core</title><style>.edge>path:hover{stroke-width:8}</style>
<path fill="none" stroke="black" d="M143.89,-164.46C201.16,-155.25 327.91,-130.57 321.55,-93.5"/>
<path fill="none" stroke="black" d="M321.55,-91.5C314.96,-53.08 198.97,-32.72 131.74,-24.11"/>
<polygon fill="blue" stroke="black" points="132.15,-20.64 121.8,-22.88 131.29,-27.58 132.15,-20.64"/>
</g>
<!-- carbon_core_module&#45;&gt;carbon_core_execution -->
<g id="edge9" class="edge">
<title>carbon_core_module&#45;&gt;carbon_core_execution</title><style>.edge>path:hover{stroke-width:8}</style>
<path fill="none" stroke="black" d="M108.14,-148.79C104.69,-140.7 100.62,-131.16 96.84,-122.31"/>
<polygon fill="blue" stroke="black" points="100.05,-120.9 92.9,-113.07 93.61,-123.65 100.05,-120.9"/>
</g>
<!-- carbon_core_sources_sinks&#45;&gt;carbon_core -->
<g id="edge10" class="edge">
<title>carbon_core_sources_sinks&#45;&gt;carbon_core</title><style>.edge>path:hover{stroke-width:8}</style>
<path fill="none" stroke="black" d="M281.2,-225.73C298.04,-212.54 316.52,-193.44 321.55,-170.5"/>
<path fill="none" stroke="black" d="M321.55,-168.5C328.7,-135.94 327.19,-126.35 321.55,-93.5"/>
</g>
<!-- carbon_core_sources_sinks&#45;&gt;carbon_core_module -->
<g id="edge11" class="edge">
<title>carbon_core_sources_sinks&#45;&gt;carbon_core_module</title><style>.edge>path:hover{stroke-width:8}</style>
<path fill="none" stroke="black" d="M215.69,-225.99C196.28,-215.12 172.15,-201.62 152.55,-190.65"/>
<polygon fill="blue" stroke="black" points="154.06,-187.48 143.62,-185.65 150.64,-193.59 154.06,-187.48"/>
</g>
<!-- carbon_core_utilities -->
<g id="node8" class="node">
<title>carbon_core_utilities</title><style>.edge>path:hover{stroke-width:8}</style>
<ellipse fill="#f31616" stroke="black" cx="259.55" cy="-408.99" rx="37.45" ry="28.98"/>
<text text-anchor="middle" x="259.55" y="-417.49" font-family="Helvetica,sans-Serif" font-size="10.00" fill="#ffffff">carbon.</text>
<text text-anchor="middle" x="259.55" y="-406.49" font-family="Helvetica,sans-Serif" font-size="10.00" fill="#ffffff">core.</text>
<text text-anchor="middle" x="259.55" y="-395.49" font-family="Helvetica,sans-Serif" font-size="10.00" fill="#ffffff">utilities</text>
</g>
<!-- carbon_core_utilities&#45;&gt;carbon_core -->
<g id="edge12" class="edge">
<title>carbon_core_utilities&#45;&gt;carbon_core</title><style>.edge>path:hover{stroke-width:8}</style>
<path fill="none" stroke="black" d="M250.55,-322.5C242.03,-289.79 287.13,-297.08 302.55,-267 322.49,-228.1 312.18,-213.2 321.55,-170.5"/>
</g>
<!-- carbon_core_utilities&#45;&gt;carbon_core_connection -->
<g id="edge13" class="edge">
<title>carbon_core_utilities&#45;&gt;carbon_core_connection</title><style>.edge>path:hover{stroke-width:8}</style>
<path fill="none" stroke="black" d="M258.62,-379.78C257.56,-363.42 255.31,-342.55 250.55,-324.5"/>
<path fill="none" stroke="black" d="M250.55,-322.5C247.91,-312.49 199.14,-287.01 161.19,-268.53"/>
<polygon fill="#f31616" stroke="black" points="162.34,-265.19 151.81,-263.99 159.29,-271.49 162.34,-265.19"/>
</g>
<!-- carbon_core_utilities&#45;&gt;carbon_core_datamethod -->
<g id="edge14" class="edge">
<title>carbon_core_utilities&#45;&gt;carbon_core_datamethod</title><style>.edge>path:hover{stroke-width:8}</style>
<path fill="none" stroke="black" d="M231.12,-390.09C225.08,-386.56 218.68,-383.03 212.55,-380 182.98,-365.4 148.57,-351.64 121.38,-341.47"/>
<polygon fill="#f31616" stroke="black" points="122.31,-338.08 111.71,-337.89 119.88,-344.64 122.31,-338.08"/>
</g>
<!-- carbon_core_utilities&#45;&gt;carbon_core_module -->
<g id="edge15" class="edge">
<title>carbon_core_utilities&#45;&gt;carbon_core_module</title><style>.edge>path:hover{stroke-width:8}</style>
<path fill="none" stroke="black" d="M250.55,-322.5C242.02,-290.11 221.81,-292.04 199.55,-267 179.12,-244.02 156.39,-217.52 139.88,-198.11"/>
<polygon fill="#f31616" stroke="black" points="142.35,-195.61 133.22,-190.25 137.02,-200.14 142.35,-195.61"/>
</g>
<!-- carbon_core_utilities&#45;&gt;carbon_core_sources_sinks -->
<g id="edge16" class="edge">
<title>carbon_core_utilities&#45;&gt;carbon_core_sources_sinks</title><style>.edge>path:hover{stroke-width:8}</style>
<path fill="none" stroke="black" d="M250.55,-322.5C246.72,-307.95 246.35,-291.26 247.09,-277.32"/>
<polygon fill="#f31616" stroke="black" points="250.59,-277.51 247.84,-267.28 243.6,-276.99 250.59,-277.51"/>
</g>
<!-- carbon_data -->
<g id="node9" class="node">
<title>carbon_data</title><style>.edge>path:hover{stroke-width:8}</style>
<polygon fill="blue" stroke="black" points="156.55,-509.98 82.55,-509.98 82.55,-473.98 156.55,-473.98 156.55,-509.98"/>
<text text-anchor="middle" x="119.55" y="-489.48" font-family="Helvetica,sans-Serif" font-size="10.00" fill="white">carbon.data</text>
</g>
<!-- carbon_data&#45;&gt;carbon_common_data_types -->
<g id="edge17" class="edge">
<title>carbon_data&#45;&gt;carbon_common_data_types</title><style>.edge>path:hover{stroke-width:8}</style>
<path fill="none" stroke="black" d="M119.55,-473.81C119.55,-464.16 119.55,-451.85 119.55,-440.61"/>
<polygon fill="blue" stroke="black" points="123.05,-440.29 119.55,-430.29 116.05,-440.29 123.05,-440.29"/>
</g>
<!-- carbon_data&#45;&gt;carbon_core_connection -->
<g id="edge18" class="edge">
<title>carbon_data&#45;&gt;carbon_core_connection</title><style>.edge>path:hover{stroke-width:8}</style>
<path fill="none" stroke="black" d="M7.55,-407.99C5.49,-393.1 14.77,-389.34 26.55,-380 61.61,-352.22 95.2,-380.86 120.55,-344 133.88,-324.62 131.4,-297.5 126.43,-276.94"/>
<polygon fill="blue" stroke="black" points="129.77,-275.88 123.77,-267.15 123.02,-277.72 129.77,-275.88"/>
</g>
<!-- carbon_data&#45;&gt;carbon_core_datamethod -->
<g id="edge19" class="edge">
<title>carbon_data&#45;&gt;carbon_core_datamethod</title><style>.edge>path:hover{stroke-width:8}</style>
<path fill="none" stroke="black" d="M7.55,-407.99C4.48,-385.81 19.1,-365.93 35.35,-351.13"/>
<polygon fill="blue" stroke="black" points="38.05,-353.43 43.39,-344.29 33.51,-348.1 38.05,-353.43"/>
</g>
<!-- carbon_data&#45;&gt;carbon_core_module -->
<g id="edge20" class="edge">
<title>carbon_data&#45;&gt;carbon_core_module</title><style>.edge>path:hover{stroke-width:8}</style>
<path fill="none" stroke="black" d="M82.53,-479.81C52.17,-468.1 13.28,-446.26 7.55,-409.99"/>
<path fill="none" stroke="black" d="M7.55,-407.99C-5.26,-326.87 -4.08,-295.57 39.55,-226 49.51,-210.13 65.8,-197.41 80.85,-188.17"/>
<polygon fill="blue" stroke="black" points="82.62,-191.19 89.51,-183.14 79.1,-185.14 82.62,-191.19"/>
</g>
<!-- carbon_data&#45;&gt;carbon_core_sources_sinks -->
<g id="edge21" class="edge">
<title>carbon_data&#45;&gt;carbon_core_sources_sinks</title><style>.edge>path:hover{stroke-width:8}</style>
<path fill="none" stroke="black" d="M156.64,-485.73C205.59,-477.96 287.65,-461.7 305.55,-437.98 342.67,-388.82 301.01,-315.3 272.58,-275.51"/>
<polygon fill="blue" stroke="black" points="275.13,-273.07 266.39,-267.08 269.49,-277.22 275.13,-273.07"/>
</g>
<!-- carbon_data_data -->
<g id="node10" class="node">
<title>carbon_data_data</title><style>.edge>path:hover{stroke-width:8}</style>
<polygon fill="blue" stroke="black" points="146.55,-586.98 92.55,-586.98 92.55,-545.98 146.55,-545.98 146.55,-586.98"/>
<text text-anchor="middle" x="119.55" y="-574.98" font-family="Helvetica,sans-Serif" font-size="10.00" fill="white">carbon.</text>
<text text-anchor="middle" x="119.55" y="-563.98" font-family="Helvetica,sans-Serif" font-size="10.00" fill="white">data.</text>
<text text-anchor="middle" x="119.55" y="-552.98" font-family="Helvetica,sans-Serif" font-size="10.00" fill="white">data</text>
</g>
<!-- carbon_data_data&#45;&gt;carbon_data -->
<g id="edge22" class="edge">
<title>carbon_data_data&#45;&gt;carbon_data</title><style>.edge>path:hover{stroke-width:8}</style>
<path fill="none" stroke="black" d="M119.55,-545.67C119.55,-537.89 119.55,-528.82 119.55,-520.43"/>
<polygon fill="blue" stroke="black" points="123.05,-520.3 119.55,-510.3 116.05,-520.3 123.05,-520.3"/>
</g>
<!-- carbon_data_utilities -->
<g id="node11" class="node">
<title>carbon_data_utilities</title><style>.edge>path:hover{stroke-width:8}</style>
<ellipse fill="#c24747" stroke="black" cx="119.55" cy="-651.97" rx="37.45" ry="28.98"/>
<text text-anchor="middle" x="119.55" y="-660.47" font-family="Helvetica,sans-Serif" font-size="10.00" fill="#ffffff">carbon.</text>
<text text-anchor="middle" x="119.55" y="-649.47" font-family="Helvetica,sans-Serif" font-size="10.00" fill="#ffffff">data.</text>
<text text-anchor="middle" x="119.55" y="-638.47" font-family="Helvetica,sans-Serif" font-size="10.00" fill="#ffffff">utilities</text>
</g>
<!-- carbon_data_utilities&#45;&gt;carbon_data_data -->
<g id="edge23" class="edge">
<title>carbon_data_utilities&#45;&gt;carbon_data_data</title><style>.edge>path:hover{stroke-width:8}</style>
<path fill="none" stroke="black" d="M119.55,-622.71C119.55,-614.46 119.55,-605.42 119.55,-597.09"/>
<polygon fill="#c24747" stroke="black" points="123.05,-597.03 119.55,-587.03 116.05,-597.03 123.05,-597.03"/>
</g>
</g>
</svg>
