<?xml version="1.0" encoding="UTF-8" standalone="no"?>
<!DOCTYPE svg PUBLIC "-//W3C//DTD SVG 1.1//EN"
 "http://www.w3.org/Graphics/SVG/1.1/DTD/svg11.dtd">
<!-- Generated by graphviz version 2.43.0 (0)
 -->
<!-- Title: G Pages: 1 -->
<svg width="291pt" height="540pt"
 viewBox="0.00 0.00 291.13 539.97" xmlns="http://www.w3.org/2000/svg" xmlns:xlink="http://www.w3.org/1999/xlink">
<g id="graph0" class="graph" transform="scale(1 1) rotate(0) translate(4 535.97)">
<title>G</title><style>.edge>path:hover{stroke-width:8}</style>
<polygon fill="white" stroke="transparent" points="-4,4 -4,-535.97 287.13,-535.97 287.13,4 -4,4"/>
<!-- carbon -->
<g id="node1" class="node">
<title>carbon</title><style>.edge>path:hover{stroke-width:8}</style>
<polygon fill="blue" stroke="black" points="142.56,-36 88.56,-36 88.56,0 142.56,0 142.56,-36"/>
<text text-anchor="middle" x="115.56" y="-15.5" font-family="Helvetica,sans-Serif" font-size="10.00" fill="white">carbon</text>
</g>
<!-- carbon_core -->
<g id="node2" class="node">
<title>carbon_core</title><style>.edge>path:hover{stroke-width:8}</style>
<ellipse fill="#f91010" stroke="black" cx="43.56" cy="-100.99" rx="43.62" ry="18"/>
<text text-anchor="middle" x="43.56" y="-98.49" font-family="Helvetica,sans-Serif" font-size="10.00" fill="#ffffff">carbon.core</text>
</g>
<!-- carbon_core&#45;&gt;carbon -->
<g id="edge1" class="edge">
<title>carbon_core&#45;&gt;carbon</title><style>.edge>path:hover{stroke-width:8}</style>
<path fill="none" stroke="black" d="M58.13,-83.6C68.27,-72.19 81.98,-56.78 93.46,-43.86"/>
<polygon fill="#f91010" stroke="black" points="96.24,-46 100.27,-36.2 91.01,-41.35 96.24,-46"/>
</g>
<!-- carbon_core_connection -->
<g id="node3" class="node">
<title>carbon_core_connection</title><style>.edge>path:hover{stroke-width:8}</style>
<polygon fill="blue" stroke="black" points="150.56,-283.98 80.56,-283.98 80.56,-242.98 150.56,-242.98 150.56,-283.98"/>
<text text-anchor="middle" x="115.56" y="-271.98" font-family="Helvetica,sans-Serif" font-size="10.00" fill="white">carbon.</text>
<text text-anchor="middle" x="115.56" y="-260.98" font-family="Helvetica,sans-Serif" font-size="10.00" fill="white">core.</text>
<text text-anchor="middle" x="115.56" y="-249.98" font-family="Helvetica,sans-Serif" font-size="10.00" fill="white">connection</text>
</g>
<!-- carbon_core_connection&#45;&gt;carbon -->
<g id="edge2" class="edge">
<title>carbon_core_connection&#45;&gt;carbon</title><style>.edge>path:hover{stroke-width:8}</style>
<path fill="none" stroke="black" d="M115.56,-242.97C115.56,-199.76 115.56,-95.91 115.56,-46.29"/>
<polygon fill="blue" stroke="black" points="119.06,-46.29 115.56,-36.29 112.06,-46.29 119.06,-46.29"/>
</g>
<!-- carbon_core_module -->
<g id="node8" class="node">
<title>carbon_core_module</title><style>.edge>path:hover{stroke-width:8}</style>
<polygon fill="blue" stroke="black" points="235.56,-206.98 181.56,-206.98 181.56,-165.98 235.56,-165.98 235.56,-206.98"/>
<text text-anchor="middle" x="208.56" y="-194.98" font-family="Helvetica,sans-Serif" font-size="10.00" fill="white">carbon.</text>
<text text-anchor="middle" x="208.56" y="-183.98" font-family="Helvetica,sans-Serif" font-size="10.00" fill="white">core.</text>
<text text-anchor="middle" x="208.56" y="-172.98" font-family="Helvetica,sans-Serif" font-size="10.00" fill="white">module</text>
</g>
<!-- carbon_core_connection&#45;&gt;carbon_core_module -->
<g id="edge3" class="edge">
<title>carbon_core_connection&#45;&gt;carbon_core_module</title><style>.edge>path:hover{stroke-width:8}</style>
<path fill="none" stroke="black" d="M147.99,-236.33C157.21,-228.89 167.25,-220.8 176.46,-213.37"/>
<polygon fill="blue" stroke="black" points="145.58,-233.78 140,-242.78 149.98,-239.22 145.58,-233.78"/>
<polygon fill="blue" stroke="black" points="178.7,-216.06 184.29,-207.06 174.31,-210.61 178.7,-216.06"/>
</g>
<!-- carbon_core_data -->
<g id="node4" class="node">
<title>carbon_core_data</title><style>.edge>path:hover{stroke-width:8}</style>
<polygon fill="blue" stroke="black" points="201.56,-437.98 147.56,-437.98 147.56,-396.98 201.56,-396.98 201.56,-437.98"/>
<text text-anchor="middle" x="174.56" y="-425.98" font-family="Helvetica,sans-Serif" font-size="10.00" fill="white">carbon.</text>
<text text-anchor="middle" x="174.56" y="-414.98" font-family="Helvetica,sans-Serif" font-size="10.00" fill="white">core.</text>
<text text-anchor="middle" x="174.56" y="-403.98" font-family="Helvetica,sans-Serif" font-size="10.00" fill="white">data</text>
</g>
<!-- carbon_core_data&#45;&gt;carbon -->
<g id="edge4" class="edge">
<title>carbon_core_data&#45;&gt;carbon</title><style>.edge>path:hover{stroke-width:8}</style>
<path fill="none" stroke="black" d="M263.56,-262.48C260.82,-191.21 289.64,-168.38 263.56,-101.99"/>
</g>
<!-- carbon_core_data&#45;&gt;carbon_core_connection -->
<g id="edge5" class="edge">
<title>carbon_core_data&#45;&gt;carbon_core_connection</title><style>.edge>path:hover{stroke-width:8}</style>
<path fill="none" stroke="black" d="M149.71,-396.9C135.04,-383.28 118.57,-363.63 114.56,-341.48"/>
</g>
<!-- carbon_core_datamethod -->
<g id="node6" class="node">
<title>carbon_core_datamethod</title><style>.edge>path:hover{stroke-width:8}</style>
<polygon fill="blue" stroke="black" points="218.56,-360.98 142.56,-360.98 142.56,-319.98 218.56,-319.98 218.56,-360.98"/>
<text text-anchor="middle" x="180.56" y="-348.98" font-family="Helvetica,sans-Serif" font-size="10.00" fill="white">carbon.</text>
<text text-anchor="middle" x="180.56" y="-337.98" font-family="Helvetica,sans-Serif" font-size="10.00" fill="white">core.</text>
<text text-anchor="middle" x="180.56" y="-326.98" font-family="Helvetica,sans-Serif" font-size="10.00" fill="white">datamethod</text>
</g>
<!-- carbon_core_data&#45;&gt;carbon_core_datamethod -->
<g id="edge6" class="edge">
<title>carbon_core_data&#45;&gt;carbon_core_datamethod</title><style>.edge>path:hover{stroke-width:8}</style>
<path fill="none" stroke="black" d="M176.14,-396.78C176.76,-388.94 177.5,-379.75 178.19,-371.14"/>
<polygon fill="blue" stroke="black" points="181.69,-371.3 179,-361.06 174.71,-370.75 181.69,-371.3"/>
</g>
<!-- carbon_core_data&#45;&gt;carbon_core_module -->
<g id="edge7" class="edge">
<title>carbon_core_data&#45;&gt;carbon_core_module</title><style>.edge>path:hover{stroke-width:8}</style>
<path fill="none" stroke="black" d="M197.89,-396.77C227.24,-369.47 272.75,-317.51 263.56,-264.48"/>
<path fill="none" stroke="black" d="M263.56,-262.48C262.86,-244.14 251.93,-227.3 240,-214.24"/>
<polygon fill="blue" stroke="black" points="242.42,-211.71 232.93,-207.01 237.42,-216.6 242.42,-211.71"/>
</g>
<!-- carbon_core_data_utilities -->
<g id="node5" class="node">
<title>carbon_core_data_utilities</title><style>.edge>path:hover{stroke-width:8}</style>
<ellipse fill="#c24747" stroke="black" cx="226.56" cy="-502.97" rx="56.64" ry="28.98"/>
<text text-anchor="middle" x="226.56" y="-511.47" font-family="Helvetica,sans-Serif" font-size="10.00" fill="#ffffff">carbon.</text>
<text text-anchor="middle" x="226.56" y="-500.47" font-family="Helvetica,sans-Serif" font-size="10.00" fill="#ffffff">core.</text>
<text text-anchor="middle" x="226.56" y="-489.47" font-family="Helvetica,sans-Serif" font-size="10.00" fill="#ffffff">data_utilities</text>
</g>
<!-- carbon_core_data_utilities&#45;&gt;carbon_core_data -->
<g id="edge8" class="edge">
<title>carbon_core_data_utilities&#45;&gt;carbon_core_data</title><style>.edge>path:hover{stroke-width:8}</style>
<path fill="none" stroke="black" d="M209.82,-475.1C204.21,-466.09 197.94,-456.02 192.25,-446.89"/>
<polygon fill="#c24747" stroke="black" points="195.07,-444.8 186.82,-438.16 189.13,-448.5 195.07,-444.8"/>
</g>
<!-- carbon_core_datamethod&#45;&gt;carbon_core_connection -->
<g id="edge9" class="edge">
<title>carbon_core_datamethod&#45;&gt;carbon_core_connection</title><style>.edge>path:hover{stroke-width:8}</style>
<path fill="none" stroke="black" d="M163.48,-319.78C156.09,-311.25 147.32,-301.13 139.31,-291.89"/>
<polygon fill="blue" stroke="black" points="141.72,-289.32 132.52,-284.06 136.43,-293.91 141.72,-289.32"/>
</g>
<!-- carbon_core_execution -->
<g id="node7" class="node">
<title>carbon_core_execution</title><style>.edge>path:hover{stroke-width:8}</style>
<ellipse fill="#9d4343" stroke="black" cx="189.56" cy="-100.99" rx="45.01" ry="28.98"/>
<text text-anchor="middle" x="189.56" y="-109.49" font-family="Helvetica,sans-Serif" font-size="10.00" fill="#ffffff">carbon.</text>
<text text-anchor="middle" x="189.56" y="-98.49" font-family="Helvetica,sans-Serif" font-size="10.00" fill="#ffffff">core.</text>
<text text-anchor="middle" x="189.56" y="-87.49" font-family="Helvetica,sans-Serif" font-size="10.00" fill="#ffffff">execution</text>
</g>
<!-- carbon_core_datamethod&#45;&gt;carbon_core_execution -->
<g id="edge10" class="edge">
<title>carbon_core_datamethod&#45;&gt;carbon_core_execution</title><style>.edge>path:hover{stroke-width:8}</style>
<path fill="none" stroke="black" d="M179.71,-319.75C179.14,-304.63 178.5,-283.24 178.56,-264.48"/>
<path fill="none" stroke="black" d="M178.56,-262.48C178.7,-219.51 167,-208.59 172.56,-165.98 173.69,-157.3 175.66,-148.12 177.86,-139.5"/>
<polygon fill="blue" stroke="black" points="181.28,-140.28 180.52,-129.71 174.52,-138.45 181.28,-140.28"/>
</g>
<!-- carbon_core_datamethod&#45;&gt;carbon_core_module -->
<g id="edge11" class="edge">
<title>carbon_core_datamethod&#45;&gt;carbon_core_module</title><style>.edge>path:hover{stroke-width:8}</style>
<path fill="none" stroke="black" d="M178.56,-262.48C178.61,-246.3 184.71,-229.47 191.4,-215.87"/>
<polygon fill="blue" stroke="black" points="194.5,-217.49 196.05,-207.01 188.3,-214.23 194.5,-217.49"/>
</g>
<!-- carbon_core_module&#45;&gt;carbon -->
<g id="edge12" class="edge">
<title>carbon_core_module&#45;&gt;carbon</title><style>.edge>path:hover{stroke-width:8}</style>
<path fill="none" stroke="black" d="M235.06,-165.88C253.37,-149.74 272.89,-125.74 263.56,-101.99"/>
<path fill="none" stroke="black" d="M263.56,-99.99C246.09,-55.51 190.77,-34.83 152.94,-25.68"/>
<polygon fill="blue" stroke="black" points="153.31,-22.17 142.79,-23.39 151.77,-29 153.31,-22.17"/>
</g>
<!-- carbon_core_module&#45;&gt;carbon_core_execution -->
<g id="edge14" class="edge">
<title>carbon_core_module&#45;&gt;carbon_core_execution</title><style>.edge>path:hover{stroke-width:8}</style>
<path fill="none" stroke="black" d="M204.06,-165.7C202.29,-157.92 200.19,-148.72 198.16,-139.76"/>
<polygon fill="blue" stroke="black" points="201.53,-138.82 195.9,-129.85 194.71,-140.38 201.53,-138.82"/>
</g>
<!-- carbon_core_utilities -->
<g id="node9" class="node">
<title>carbon_core_utilities</title><style>.edge>path:hover{stroke-width:8}</style>
<ellipse fill="#db2f2f" stroke="black" cx="114.56" cy="-502.97" rx="37.45" ry="28.98"/>
<text text-anchor="middle" x="114.56" y="-511.47" font-family="Helvetica,sans-Serif" font-size="10.00" fill="#ffffff">carbon.</text>
<text text-anchor="middle" x="114.56" y="-500.47" font-family="Helvetica,sans-Serif" font-size="10.00" fill="#ffffff">core.</text>
<text text-anchor="middle" x="114.56" y="-489.47" font-family="Helvetica,sans-Serif" font-size="10.00" fill="#ffffff">utilities</text>
</g>
<!-- carbon_core_utilities&#45;&gt;carbon_core_connection -->
<g id="edge15" class="edge">
<title>carbon_core_utilities&#45;&gt;carbon_core_connection</title><style>.edge>path:hover{stroke-width:8}</style>
<path fill="none" stroke="black" d="M111.76,-473.86C110.83,-457.53 110.83,-436.66 114.56,-418.48"/>
<path fill="none" stroke="black" d="M114.56,-416.48C121.26,-383.83 120.5,-374.28 114.56,-341.48"/>
<path fill="none" stroke="black" d="M114.56,-339.48C111.88,-324.68 111.82,-307.96 112.57,-294.07"/>
<polygon fill="#db2f2f" stroke="black" points="116.06,-294.3 113.26,-284.08 109.08,-293.81 116.06,-294.3"/>
</g>
<!-- carbon_core_utilities&#45;&gt;carbon_core_data -->
<g id="edge16" class="edge">
<title>carbon_core_utilities&#45;&gt;carbon_core_data</title><style>.edge>path:hover{stroke-width:8}</style>
<path fill="none" stroke="black" d="M132.24,-477.38C139.19,-467.7 147.21,-456.54 154.39,-446.56"/>
<polygon fill="#db2f2f" stroke="black" points="157.43,-448.31 160.43,-438.15 151.75,-444.23 157.43,-448.31"/>
</g>
<!-- carbon_core_utilities&#45;&gt;carbon_core_datamethod -->
<g id="edge17" class="edge">
<title>carbon_core_utilities&#45;&gt;carbon_core_datamethod</title><style>.edge>path:hover{stroke-width:8}</style>
<path fill="none" stroke="black" d="M114.56,-416.48C118.47,-397.42 131.64,-380.65 145.19,-367.84"/>
<polygon fill="#db2f2f" stroke="black" points="147.57,-370.41 152.71,-361.14 142.91,-365.18 147.57,-370.41"/>
</g>
</g>
</svg>
