<?xml version="1.0" encoding="UTF-8" standalone="no"?>
<!DOCTYPE svg PUBLIC "-//W3C//DTD SVG 1.1//EN"
 "http://www.w3.org/Graphics/SVG/1.1/DTD/svg11.dtd">
<!-- Generated by graphviz version 2.43.0 (0)
 -->
<!-- Title: G Pages: 1 -->
<svg width="252pt" height="352pt"
 viewBox="0.00 0.00 251.81 352.00" xmlns="http://www.w3.org/2000/svg" xmlns:xlink="http://www.w3.org/1999/xlink">
<g id="graph0" class="graph" transform="scale(1 1) rotate(0) translate(4 348)">
<title>G</title><style>.edge>path:hover{stroke-width:8}</style>
<polygon fill="white" stroke="transparent" points="-4,4 -4,-348 247.81,-348 247.81,4 -4,4"/>
<!-- carbon_core -->
<g id="node1" class="node">
<title>carbon_core</title><style>.edge>path:hover{stroke-width:8}</style>
<polygon fill="blue" stroke="black" points="85.31,-36 11.31,-36 11.31,0 85.31,0 85.31,-36"/>
<text text-anchor="middle" x="48.31" y="-15.5" font-family="Helvetica,sans-Serif" font-size="10.00" fill="white">carbon.core</text>
</g>
<!-- carbon_core_connection -->
<g id="node2" class="node">
<title>carbon_core_connection</title><style>.edge>path:hover{stroke-width:8}</style>
<polygon fill="blue" stroke="black" points="102.31,-267 32.31,-267 32.31,-226 102.31,-226 102.31,-267"/>
<text text-anchor="middle" x="67.31" y="-255" font-family="Helvetica,sans-Serif" font-size="10.00" fill="white">carbon.</text>
<text text-anchor="middle" x="67.31" y="-244" font-family="Helvetica,sans-Serif" font-size="10.00" fill="white">core.</text>
<text text-anchor="middle" x="67.31" y="-233" font-family="Helvetica,sans-Serif" font-size="10.00" fill="white">connection</text>
</g>
<!-- carbon_core_module -->
<g id="node5" class="node">
<title>carbon_core_module</title><style>.edge>path:hover{stroke-width:8}</style>
<polygon fill="blue" stroke="black" points="109.31,-190 55.31,-190 55.31,-149 109.31,-149 109.31,-190"/>
<text text-anchor="middle" x="82.31" y="-178" font-family="Helvetica,sans-Serif" font-size="10.00" fill="white">carbon.</text>
<text text-anchor="middle" x="82.31" y="-167" font-family="Helvetica,sans-Serif" font-size="10.00" fill="white">core.</text>
<text text-anchor="middle" x="82.31" y="-156" font-family="Helvetica,sans-Serif" font-size="10.00" fill="white">module</text>
</g>
<!-- carbon_core_connection&#45;&gt;carbon_core_module -->
<g id="edge1" class="edge">
<title>carbon_core_connection&#45;&gt;carbon_core_module</title><style>.edge>path:hover{stroke-width:8}</style>
<path fill="none" stroke="black" d="M71.25,-225.79C72.82,-217.96 74.66,-208.77 76.38,-200.16"/>
<polygon fill="blue" stroke="black" points="79.87,-200.57 78.4,-190.07 73,-199.19 79.87,-200.57"/>
</g>
<!-- carbon_core_datamethod -->
<g id="node3" class="node">
<title>carbon_core_datamethod</title><style>.edge>path:hover{stroke-width:8}</style>
<polygon fill="blue" stroke="black" points="136.31,-344 60.31,-344 60.31,-303 136.31,-303 136.31,-344"/>
<text text-anchor="middle" x="98.31" y="-332" font-family="Helvetica,sans-Serif" font-size="10.00" fill="white">carbon.</text>
<text text-anchor="middle" x="98.31" y="-321" font-family="Helvetica,sans-Serif" font-size="10.00" fill="white">core.</text>
<text text-anchor="middle" x="98.31" y="-310" font-family="Helvetica,sans-Serif" font-size="10.00" fill="white">datamethod</text>
</g>
<!-- carbon_core_datamethod&#45;&gt;carbon_core -->
<g id="edge2" class="edge">
<title>carbon_core_datamethod&#45;&gt;carbon_core</title><style>.edge>path:hover{stroke-width:8}</style>
<path fill="none" stroke="black" d="M61.08,-302.87C47.2,-293.75 32.58,-281.65 23.31,-267 -0.06,-230.06 0.38,-214.04 4.31,-170.5"/>
<path fill="none" stroke="black" d="M4.31,-168.5C5.4,-125.6 -7.19,-112.38 7.31,-72 10.91,-61.98 17.17,-52.35 23.74,-44.12"/>
<polygon fill="blue" stroke="black" points="26.5,-46.27 30.31,-36.38 21.17,-41.73 26.5,-46.27"/>
</g>
<!-- carbon_core_datamethod&#45;&gt;carbon_core_connection -->
<g id="edge3" class="edge">
<title>carbon_core_datamethod&#45;&gt;carbon_core_connection</title><style>.edge>path:hover{stroke-width:8}</style>
<path fill="none" stroke="black" d="M90.16,-302.79C86.85,-294.79 82.96,-285.37 79.34,-276.59"/>
<polygon fill="blue" stroke="black" points="82.45,-274.98 75.4,-267.07 75.99,-277.65 82.45,-274.98"/>
</g>
<!-- carbon_core_execution -->
<g id="node4" class="node">
<title>carbon_core_execution</title><style>.edge>path:hover{stroke-width:8}</style>
<polygon fill="blue" stroke="black" points="80.31,-113 16.31,-113 16.31,-72 80.31,-72 80.31,-113"/>
<text text-anchor="middle" x="48.31" y="-101" font-family="Helvetica,sans-Serif" font-size="10.00" fill="white">carbon.</text>
<text text-anchor="middle" x="48.31" y="-90" font-family="Helvetica,sans-Serif" font-size="10.00" fill="white">core.</text>
<text text-anchor="middle" x="48.31" y="-79" font-family="Helvetica,sans-Serif" font-size="10.00" fill="white">execution</text>
</g>
<!-- carbon_core_datamethod&#45;&gt;carbon_core_execution -->
<g id="edge4" class="edge">
<title>carbon_core_datamethod&#45;&gt;carbon_core_execution</title><style>.edge>path:hover{stroke-width:8}</style>
<path fill="none" stroke="black" d="M4.31,-168.5C5.86,-151.36 14.75,-134.61 24.15,-121.3"/>
<polygon fill="blue" stroke="black" points="27.11,-123.18 30.32,-113.08 21.52,-118.98 27.11,-123.18"/>
</g>
<!-- carbon_core_datamethod&#45;&gt;carbon_core_module -->
<g id="edge5" class="edge">
<title>carbon_core_datamethod&#45;&gt;carbon_core_module</title><style>.edge>path:hover{stroke-width:8}</style>
<path fill="none" stroke="black" d="M105.25,-302.68C111.15,-283.01 117.72,-252.1 111.31,-226 109.05,-216.79 104.97,-207.42 100.56,-199.06"/>
<polygon fill="blue" stroke="black" points="103.49,-197.12 95.53,-190.12 97.38,-200.55 103.49,-197.12"/>
</g>
<!-- carbon_core_sources_sinks -->
<g id="node6" class="node">
<title>carbon_core_sources_sinks</title><style>.edge>path:hover{stroke-width:8}</style>
<polygon fill="blue" stroke="black" points="243.81,-267 158.81,-267 158.81,-226 243.81,-226 243.81,-267"/>
<text text-anchor="middle" x="201.31" y="-255" font-family="Helvetica,sans-Serif" font-size="10.00" fill="white">carbon.</text>
<text text-anchor="middle" x="201.31" y="-244" font-family="Helvetica,sans-Serif" font-size="10.00" fill="white">core.</text>
<text text-anchor="middle" x="201.31" y="-233" font-family="Helvetica,sans-Serif" font-size="10.00" fill="white">sources_sinks</text>
</g>
<!-- carbon_core_datamethod&#45;&gt;carbon_core_sources_sinks -->
<g id="edge6" class="edge">
<title>carbon_core_datamethod&#45;&gt;carbon_core_sources_sinks</title><style>.edge>path:hover{stroke-width:8}</style>
<path fill="none" stroke="black" d="M125.1,-302.99C137.64,-293.86 152.74,-282.87 166.18,-273.08"/>
<polygon fill="blue" stroke="black" points="168.27,-275.89 174.29,-267.17 164.15,-270.23 168.27,-275.89"/>
</g>
<!-- carbon_core_execution&#45;&gt;carbon_core -->
<g id="edge7" class="edge">
<title>carbon_core_execution&#45;&gt;carbon_core</title><style>.edge>path:hover{stroke-width:8}</style>
<path fill="none" stroke="black" d="M48.31,-71.69C48.31,-63.91 48.31,-54.84 48.31,-46.45"/>
<polygon fill="blue" stroke="black" points="51.81,-46.32 48.31,-36.32 44.81,-46.32 51.81,-46.32"/>
</g>
<!-- carbon_core_module&#45;&gt;carbon_core -->
<g id="edge8" class="edge">
<title>carbon_core_module&#45;&gt;carbon_core</title><style>.edge>path:hover{stroke-width:8}</style>
<path fill="none" stroke="black" d="M109.61,-149.69C126.23,-135.7 143.24,-115.31 137.31,-93.5"/>
<path fill="none" stroke="black" d="M137.31,-91.5C131.31,-69.42 112.79,-52.56 94.18,-40.68"/>
<polygon fill="blue" stroke="black" points="95.77,-37.55 85.39,-35.41 92.17,-43.56 95.77,-37.55"/>
</g>
<!-- carbon_core_module&#45;&gt;carbon_core_execution -->
<g id="edge9" class="edge">
<title>carbon_core_module&#45;&gt;carbon_core_execution</title><style>.edge>path:hover{stroke-width:8}</style>
<path fill="none" stroke="black" d="M73.38,-148.79C69.71,-140.7 65.38,-131.16 61.37,-122.31"/>
<polygon fill="blue" stroke="black" points="64.5,-120.74 57.18,-113.07 58.12,-123.63 64.5,-120.74"/>
</g>
<!-- carbon_core_sources_sinks&#45;&gt;carbon_core -->
<g id="edge10" class="edge">
<title>carbon_core_sources_sinks&#45;&gt;carbon_core</title><style>.edge>path:hover{stroke-width:8}</style>
<path fill="none" stroke="black" d="M191.07,-225.94C176.69,-197.57 150.75,-142.96 137.31,-93.5"/>
</g>
<!-- carbon_core_sources_sinks&#45;&gt;carbon_core_module -->
<g id="edge11" class="edge">
<title>carbon_core_sources_sinks&#45;&gt;carbon_core_module</title><style>.edge>path:hover{stroke-width:8}</style>
<path fill="none" stroke="black" d="M170.35,-225.99C154.43,-215.96 134.94,-203.67 118.34,-193.21"/>
<polygon fill="blue" stroke="black" points="119.79,-189.99 109.47,-187.61 116.06,-195.91 119.79,-189.99"/>
</g>
</g>
</svg>
