<?xml version="1.0" encoding="UTF-8" standalone="no"?>
<!DOCTYPE svg PUBLIC "-//W3C//DTD SVG 1.1//EN"
 "http://www.w3.org/Graphics/SVG/1.1/DTD/svg11.dtd">
<!-- Generated by graphviz version 2.43.0 (0)
 -->
<!-- Title: G Pages: 1 -->
<svg width="321pt" height="540pt"
 viewBox="0.00 0.00 320.80 539.97" xmlns="http://www.w3.org/2000/svg" xmlns:xlink="http://www.w3.org/1999/xlink">
<g id="graph0" class="graph" transform="scale(1 1) rotate(0) translate(4 535.97)">
<title>G</title><style>.edge>path:hover{stroke-width:8}</style>
<polygon fill="white" stroke="transparent" points="-4,4 -4,-535.97 316.8,-535.97 316.8,4 -4,4"/>
<!-- carbon -->
<g id="node1" class="node">
<title>carbon</title><style>.edge>path:hover{stroke-width:8}</style>
<polygon fill="blue" stroke="black" points="57.32,-36 3.32,-36 3.32,0 57.32,0 57.32,-36"/>
<text text-anchor="middle" x="30.32" y="-15.5" font-family="Helvetica,sans-Serif" font-size="10.00" fill="white">carbon</text>
</g>
<!-- carbon_core -->
<g id="node2" class="node">
<title>carbon_core</title><style>.edge>path:hover{stroke-width:8}</style>
<ellipse fill="#f91010" stroke="black" cx="74.32" cy="-100.99" rx="43.62" ry="18"/>
<text text-anchor="middle" x="74.32" y="-98.49" font-family="Helvetica,sans-Serif" font-size="10.00" fill="#ffffff">carbon.core</text>
</g>
<!-- carbon_core&#45;&gt;carbon -->
<g id="edge1" class="edge">
<title>carbon_core&#45;&gt;carbon</title><style>.edge>path:hover{stroke-width:8}</style>
<path fill="none" stroke="black" d="M65.21,-83.21C59.23,-72.21 51.29,-57.6 44.5,-45.09"/>
<polygon fill="#f91010" stroke="black" points="47.43,-43.15 39.58,-36.04 41.28,-46.5 47.43,-43.15"/>
</g>
<!-- carbon_time -->
<g id="node10" class="node">
<title>carbon_time</title><style>.edge>path:hover{stroke-width:8}</style>
<ellipse fill="#9d4343" stroke="black" cx="146.32" cy="-18" rx="44.3" ry="18"/>
<text text-anchor="middle" x="146.32" y="-15.5" font-family="Helvetica,sans-Serif" font-size="10.00" fill="#ffffff">carbon.time</text>
</g>
<!-- carbon_core&#45;&gt;carbon_time -->
<g id="edge2" class="edge">
<title>carbon_core&#45;&gt;carbon_time</title><style>.edge>path:hover{stroke-width:8}</style>
<path fill="none" stroke="black" d="M88.89,-83.6C99.3,-71.89 113.48,-55.95 125.14,-42.83"/>
<polygon fill="#f91010" stroke="black" points="127.99,-44.89 132.02,-35.09 122.76,-40.24 127.99,-44.89"/>
</g>
<!-- carbon_core_connection -->
<g id="node3" class="node">
<title>carbon_core_connection</title><style>.edge>path:hover{stroke-width:8}</style>
<polygon fill="blue" stroke="black" points="190.32,-283.98 120.32,-283.98 120.32,-242.98 190.32,-242.98 190.32,-283.98"/>
<text text-anchor="middle" x="155.32" y="-271.98" font-family="Helvetica,sans-Serif" font-size="10.00" fill="white">carbon.</text>
<text text-anchor="middle" x="155.32" y="-260.98" font-family="Helvetica,sans-Serif" font-size="10.00" fill="white">core.</text>
<text text-anchor="middle" x="155.32" y="-249.98" font-family="Helvetica,sans-Serif" font-size="10.00" fill="white">connection</text>
</g>
<!-- carbon_core_connection&#45;&gt;carbon -->
<g id="edge3" class="edge">
<title>carbon_core_connection&#45;&gt;carbon</title><style>.edge>path:hover{stroke-width:8}</style>
<path fill="none" stroke="black" d="M137.08,-242.97C123.84,-228.31 105.95,-207.42 92.32,-187.48"/>
</g>
<!-- carbon_core_module -->
<g id="node8" class="node">
<title>carbon_core_module</title><style>.edge>path:hover{stroke-width:8}</style>
<polygon fill="blue" stroke="black" points="191.32,-206.98 137.32,-206.98 137.32,-165.98 191.32,-165.98 191.32,-206.98"/>
<text text-anchor="middle" x="164.32" y="-194.98" font-family="Helvetica,sans-Serif" font-size="10.00" fill="white">carbon.</text>
<text text-anchor="middle" x="164.32" y="-183.98" font-family="Helvetica,sans-Serif" font-size="10.00" fill="white">core.</text>
<text text-anchor="middle" x="164.32" y="-172.98" font-family="Helvetica,sans-Serif" font-size="10.00" fill="white">module</text>
</g>
<!-- carbon_core_connection&#45;&gt;carbon_core_module -->
<g id="edge4" class="edge">
<title>carbon_core_connection&#45;&gt;carbon_core_module</title><style>.edge>path:hover{stroke-width:8}</style>
<path fill="none" stroke="black" d="M158.9,-232.68C159.51,-227.56 160.15,-222.25 160.76,-217.13"/>
<polygon fill="blue" stroke="black" points="155.4,-232.43 157.69,-242.78 162.35,-233.27 155.4,-232.43"/>
<polygon fill="blue" stroke="black" points="164.26,-217.4 161.97,-207.06 157.31,-216.57 164.26,-217.4"/>
</g>
<!-- carbon_core_data -->
<g id="node4" class="node">
<title>carbon_core_data</title><style>.edge>path:hover{stroke-width:8}</style>
<polygon fill="blue" stroke="black" points="246.32,-437.98 192.32,-437.98 192.32,-396.98 246.32,-396.98 246.32,-437.98"/>
<text text-anchor="middle" x="219.32" y="-425.98" font-family="Helvetica,sans-Serif" font-size="10.00" fill="white">carbon.</text>
<text text-anchor="middle" x="219.32" y="-414.98" font-family="Helvetica,sans-Serif" font-size="10.00" fill="white">core.</text>
<text text-anchor="middle" x="219.32" y="-403.98" font-family="Helvetica,sans-Serif" font-size="10.00" fill="white">data</text>
</g>
<!-- carbon_core_data&#45;&gt;carbon -->
<g id="edge5" class="edge">
<title>carbon_core_data&#45;&gt;carbon</title><style>.edge>path:hover{stroke-width:8}</style>
<path fill="none" stroke="black" d="M198.3,-396.78C184.06,-382.53 165.66,-362.2 153.32,-341.48"/>
<path fill="none" stroke="black" d="M153.32,-339.48C137.49,-312.91 123.97,-312.21 111.32,-283.98 93.45,-244.09 116.99,-223.57 92.32,-187.48"/>
<path fill="none" stroke="black" d="M92.32,-185.48C59.63,-141.8 19.72,-153.7 2.32,-101.99"/>
<path fill="none" stroke="black" d="M2.32,-99.99C-3.91,-81.49 3.61,-60.67 12.42,-44.77"/>
<polygon fill="blue" stroke="black" points="15.51,-46.41 17.66,-36.04 9.51,-42.81 15.51,-46.41"/>
</g>
<!-- carbon_core_data&#45;&gt;carbon_core_connection -->
<g id="edge6" class="edge">
<title>carbon_core_data&#45;&gt;carbon_core_connection</title><style>.edge>path:hover{stroke-width:8}</style>
<path fill="none" stroke="black" d="M153.32,-339.48C145.33,-326.07 145.26,-308.76 147.45,-294.16"/>
<polygon fill="blue" stroke="black" points="150.93,-294.58 149.36,-284.1 144.06,-293.27 150.93,-294.58"/>
</g>
<!-- carbon_core_datamethod -->
<g id="node6" class="node">
<title>carbon_core_datamethod</title><style>.edge>path:hover{stroke-width:8}</style>
<polygon fill="blue" stroke="black" points="257.32,-360.98 181.32,-360.98 181.32,-319.98 257.32,-319.98 257.32,-360.98"/>
<text text-anchor="middle" x="219.32" y="-348.98" font-family="Helvetica,sans-Serif" font-size="10.00" fill="white">carbon.</text>
<text text-anchor="middle" x="219.32" y="-337.98" font-family="Helvetica,sans-Serif" font-size="10.00" fill="white">core.</text>
<text text-anchor="middle" x="219.32" y="-326.98" font-family="Helvetica,sans-Serif" font-size="10.00" fill="white">datamethod</text>
</g>
<!-- carbon_core_data&#45;&gt;carbon_core_datamethod -->
<g id="edge7" class="edge">
<title>carbon_core_data&#45;&gt;carbon_core_datamethod</title><style>.edge>path:hover{stroke-width:8}</style>
<path fill="none" stroke="black" d="M219.32,-396.78C219.32,-388.94 219.32,-379.75 219.32,-371.14"/>
<polygon fill="blue" stroke="black" points="222.82,-371.06 219.32,-361.06 215.82,-371.06 222.82,-371.06"/>
</g>
<!-- carbon_core_execution -->
<g id="node7" class="node">
<title>carbon_core_execution</title><style>.edge>path:hover{stroke-width:8}</style>
<ellipse fill="#964040" stroke="black" cx="219.32" cy="-100.99" rx="45.01" ry="28.98"/>
<text text-anchor="middle" x="219.32" y="-109.49" font-family="Helvetica,sans-Serif" font-size="10.00" fill="#ffffff">carbon.</text>
<text text-anchor="middle" x="219.32" y="-98.49" font-family="Helvetica,sans-Serif" font-size="10.00" fill="#ffffff">core.</text>
<text text-anchor="middle" x="219.32" y="-87.49" font-family="Helvetica,sans-Serif" font-size="10.00" fill="#ffffff">execution</text>
</g>
<!-- carbon_core_data&#45;&gt;carbon_core_execution -->
<g id="edge8" class="edge">
<title>carbon_core_data&#45;&gt;carbon_core_execution</title><style>.edge>path:hover{stroke-width:8}</style>
<path fill="none" stroke="black" d="M292.32,-262.48C283.25,-230.41 299,-220.14 292.32,-187.48"/>
<path fill="none" stroke="black" d="M292.32,-185.48C287.81,-163.44 272.2,-144.12 256.57,-129.63"/>
<polygon fill="blue" stroke="black" points="258.76,-126.9 248.95,-122.92 254.14,-132.15 258.76,-126.9"/>
</g>
<!-- carbon_core_data&#45;&gt;carbon_core_module -->
<g id="edge9" class="edge">
<title>carbon_core_data&#45;&gt;carbon_core_module</title><style>.edge>path:hover{stroke-width:8}</style>
<path fill="none" stroke="black" d="M239.99,-396.88C267.34,-368.44 310.13,-313.77 292.32,-264.48"/>
<path fill="none" stroke="black" d="M292.32,-262.48C281.26,-223.4 235.26,-204.01 201.56,-194.88"/>
<polygon fill="blue" stroke="black" points="202.1,-191.41 191.55,-192.37 200.4,-198.2 202.1,-191.41"/>
</g>
<!-- carbon_core_data&#45;&gt;carbon_time -->
<g id="edge10" class="edge">
<title>carbon_core_data&#45;&gt;carbon_time</title><style>.edge>path:hover{stroke-width:8}</style>
<path fill="none" stroke="black" d="M292.32,-185.48C282.07,-135.38 305.11,-112.06 273.32,-72 254.63,-48.43 223.6,-35.23 196.89,-27.89"/>
<polygon fill="blue" stroke="black" points="197.46,-24.42 186.9,-25.36 195.73,-31.21 197.46,-24.42"/>
</g>
<!-- carbon_core_data_utilities -->
<g id="node5" class="node">
<title>carbon_core_data_utilities</title><style>.edge>path:hover{stroke-width:8}</style>
<ellipse fill="#c24747" stroke="black" cx="163.32" cy="-502.97" rx="56.64" ry="28.98"/>
<text text-anchor="middle" x="163.32" y="-511.47" font-family="Helvetica,sans-Serif" font-size="10.00" fill="#ffffff">carbon.</text>
<text text-anchor="middle" x="163.32" y="-500.47" font-family="Helvetica,sans-Serif" font-size="10.00" fill="#ffffff">core.</text>
<text text-anchor="middle" x="163.32" y="-489.47" font-family="Helvetica,sans-Serif" font-size="10.00" fill="#ffffff">data_utilities</text>
</g>
<!-- carbon_core_data_utilities&#45;&gt;carbon_core_data -->
<g id="edge11" class="edge">
<title>carbon_core_data_utilities&#45;&gt;carbon_core_data</title><style>.edge>path:hover{stroke-width:8}</style>
<path fill="none" stroke="black" d="M181.35,-475.1C187.45,-465.99 194.29,-455.81 200.46,-446.61"/>
<polygon fill="#c24747" stroke="black" points="203.46,-448.41 206.12,-438.16 197.65,-444.52 203.46,-448.41"/>
</g>
<!-- carbon_core_datamethod&#45;&gt;carbon_core_connection -->
<g id="edge12" class="edge">
<title>carbon_core_datamethod&#45;&gt;carbon_core_connection</title><style>.edge>path:hover{stroke-width:8}</style>
<path fill="none" stroke="black" d="M202.51,-319.78C195.23,-311.25 186.59,-301.13 178.71,-291.89"/>
<polygon fill="blue" stroke="black" points="181.18,-289.39 172.02,-284.06 175.85,-293.94 181.18,-289.39"/>
</g>
<!-- carbon_core_datamethod&#45;&gt;carbon_core_execution -->
<g id="edge13" class="edge">
<title>carbon_core_datamethod&#45;&gt;carbon_core_execution</title><style>.edge>path:hover{stroke-width:8}</style>
<path fill="none" stroke="black" d="M219.32,-262.48C212.16,-221.11 213.43,-172.84 215.68,-140.12"/>
<polygon fill="blue" stroke="black" points="219.18,-140.31 216.44,-130.07 212.2,-139.78 219.18,-140.31"/>
</g>
<!-- carbon_core_datamethod&#45;&gt;carbon_core_module -->
<g id="edge14" class="edge">
<title>carbon_core_datamethod&#45;&gt;carbon_core_module</title><style>.edge>path:hover{stroke-width:8}</style>
<path fill="none" stroke="black" d="M221.14,-319.9C222.12,-304.68 222.54,-283.09 219.32,-264.48"/>
<path fill="none" stroke="black" d="M219.32,-262.48C216.22,-244.56 205.2,-227.9 193.83,-214.85"/>
<polygon fill="blue" stroke="black" points="196.13,-212.18 186.78,-207.21 190.99,-216.93 196.13,-212.18"/>
</g>
<!-- carbon_core_module&#45;&gt;carbon -->
<g id="edge15" class="edge">
<title>carbon_core_module&#45;&gt;carbon</title><style>.edge>path:hover{stroke-width:8}</style>
<path fill="none" stroke="black" d="M137.12,-175.92C98.33,-162.12 30.75,-137.49 21.32,-129.98 9.56,-120.62 7.12,-116.24 2.32,-101.99"/>
</g>
<!-- carbon_core_module&#45;&gt;carbon_core_execution -->
<g id="edge17" class="edge">
<title>carbon_core_module&#45;&gt;carbon_core_execution</title><style>.edge>path:hover{stroke-width:8}</style>
<path fill="none" stroke="black" d="M177.36,-165.7C183.11,-156.97 190.03,-146.45 196.59,-136.5"/>
<polygon fill="blue" stroke="black" points="199.64,-138.24 202.22,-127.96 193.79,-134.39 199.64,-138.24"/>
</g>
<!-- carbon_core_module&#45;&gt;carbon_time -->
<g id="edge18" class="edge">
<title>carbon_core_module&#45;&gt;carbon_time</title><style>.edge>path:hover{stroke-width:8}</style>
<path fill="none" stroke="black" d="M162.19,-165.73C158.98,-136.04 152.9,-79.82 149.27,-46.25"/>
<polygon fill="blue" stroke="black" points="152.74,-45.78 148.18,-36.21 145.78,-46.53 152.74,-45.78"/>
</g>
<!-- carbon_core_utilities -->
<g id="node9" class="node">
<title>carbon_core_utilities</title><style>.edge>path:hover{stroke-width:8}</style>
<ellipse fill="#c24747" stroke="black" cx="275.32" cy="-502.97" rx="37.45" ry="28.98"/>
<text text-anchor="middle" x="275.32" y="-511.47" font-family="Helvetica,sans-Serif" font-size="10.00" fill="#ffffff">carbon.</text>
<text text-anchor="middle" x="275.32" y="-500.47" font-family="Helvetica,sans-Serif" font-size="10.00" fill="#ffffff">core.</text>
<text text-anchor="middle" x="275.32" y="-489.47" font-family="Helvetica,sans-Serif" font-size="10.00" fill="#ffffff">utilities</text>
</g>
<!-- carbon_core_utilities&#45;&gt;carbon_core_data -->
<g id="edge19" class="edge">
<title>carbon_core_utilities&#45;&gt;carbon_core_data</title><style>.edge>path:hover{stroke-width:8}</style>
<path fill="none" stroke="black" d="M258.52,-476.92C252.16,-467.44 244.87,-456.57 238.32,-446.8"/>
<polygon fill="#c24747" stroke="black" points="241.03,-444.57 232.55,-438.21 235.22,-448.47 241.03,-444.57"/>
</g>
</g>
</svg>
