<?xml version="1.0" encoding="UTF-8" standalone="no"?>
<!DOCTYPE svg PUBLIC "-//W3C//DTD SVG 1.1//EN"
 "http://www.w3.org/Graphics/SVG/1.1/DTD/svg11.dtd">
<!-- Generated by graphviz version 2.43.0 (0)
 -->
<!-- Title: G Pages: 1 -->
<svg width="177pt" height="761pt"
 viewBox="0.00 0.00 176.64 760.97" xmlns="http://www.w3.org/2000/svg" xmlns:xlink="http://www.w3.org/1999/xlink">
<g id="graph0" class="graph" transform="scale(1 1) rotate(0) translate(4 756.97)">
<title>G</title><style>.edge>path:hover{stroke-width:8}</style>
<polygon fill="white" stroke="transparent" points="-4,4 -4,-756.97 172.64,-756.97 172.64,4 -4,4"/>
<!-- carbon -->
<g id="node1" class="node">
<title>carbon</title><style>.edge>path:hover{stroke-width:8}</style>
<polygon fill="blue" stroke="black" points="158,-36 104,-36 104,0 158,0 158,-36"/>
<text text-anchor="middle" x="131" y="-15.5" font-family="Helvetica,sans-Serif" font-size="10.00" fill="white">carbon</text>
</g>
<!-- carbon_core -->
<g id="node2" class="node">
<title>carbon_core</title><style>.edge>path:hover{stroke-width:8}</style>
<polygon fill="blue" stroke="black" points="135,-108 61,-108 61,-72 135,-72 135,-108"/>
<text text-anchor="middle" x="98" y="-87.5" font-family="Helvetica,sans-Serif" font-size="10.00" fill="white">carbon.core</text>
</g>
<!-- carbon_core&#45;&gt;carbon -->
<g id="edge1" class="edge">
<title>carbon_core&#45;&gt;carbon</title><style>.edge>path:hover{stroke-width:8}</style>
<path fill="none" stroke="black" d="M106.16,-71.7C109.91,-63.73 114.45,-54.1 118.62,-45.26"/>
<polygon fill="blue" stroke="black" points="121.84,-46.64 122.94,-36.1 115.51,-43.66 121.84,-46.64"/>
</g>
<!-- carbon_core_connection -->
<g id="node3" class="node">
<title>carbon_core_connection</title><style>.edge>path:hover{stroke-width:8}</style>
<polygon fill="blue" stroke="black" points="136,-339 66,-339 66,-298 136,-298 136,-339"/>
<text text-anchor="middle" x="101" y="-327" font-family="Helvetica,sans-Serif" font-size="10.00" fill="white">carbon.</text>
<text text-anchor="middle" x="101" y="-316" font-family="Helvetica,sans-Serif" font-size="10.00" fill="white">core.</text>
<text text-anchor="middle" x="101" y="-305" font-family="Helvetica,sans-Serif" font-size="10.00" fill="white">connection</text>
</g>
<!-- carbon_core_module -->
<g id="node6" class="node">
<title>carbon_core_module</title><style>.edge>path:hover{stroke-width:8}</style>
<polygon fill="blue" stroke="black" points="120,-262 66,-262 66,-221 120,-221 120,-262"/>
<text text-anchor="middle" x="93" y="-250" font-family="Helvetica,sans-Serif" font-size="10.00" fill="white">carbon.</text>
<text text-anchor="middle" x="93" y="-239" font-family="Helvetica,sans-Serif" font-size="10.00" fill="white">core.</text>
<text text-anchor="middle" x="93" y="-228" font-family="Helvetica,sans-Serif" font-size="10.00" fill="white">module</text>
</g>
<!-- carbon_core_connection&#45;&gt;carbon_core_module -->
<g id="edge2" class="edge">
<title>carbon_core_connection&#45;&gt;carbon_core_module</title><style>.edge>path:hover{stroke-width:8}</style>
<path fill="none" stroke="black" d="M98.9,-297.79C98.06,-289.96 97.08,-280.77 96.16,-272.16"/>
<polygon fill="blue" stroke="black" points="99.63,-271.65 95.09,-262.07 92.67,-272.39 99.63,-271.65"/>
</g>
<!-- carbon_core_datamethod -->
<g id="node4" class="node">
<title>carbon_core_datamethod</title><style>.edge>path:hover{stroke-width:8}</style>
<polygon fill="blue" stroke="black" points="76,-416 0,-416 0,-375 76,-375 76,-416"/>
<text text-anchor="middle" x="38" y="-404" font-family="Helvetica,sans-Serif" font-size="10.00" fill="white">carbon.</text>
<text text-anchor="middle" x="38" y="-393" font-family="Helvetica,sans-Serif" font-size="10.00" fill="white">core.</text>
<text text-anchor="middle" x="38" y="-382" font-family="Helvetica,sans-Serif" font-size="10.00" fill="white">datamethod</text>
</g>
<!-- carbon_core_datamethod&#45;&gt;carbon_core_connection -->
<g id="edge3" class="edge">
<title>carbon_core_datamethod&#45;&gt;carbon_core_connection</title><style>.edge>path:hover{stroke-width:8}</style>
<path fill="none" stroke="black" d="M54.55,-374.79C61.71,-366.27 70.22,-356.14 77.98,-346.9"/>
<polygon fill="blue" stroke="black" points="80.81,-348.98 84.56,-339.07 75.45,-344.48 80.81,-348.98"/>
</g>
<!-- carbon_core_execution -->
<g id="node5" class="node">
<title>carbon_core_execution</title><style>.edge>path:hover{stroke-width:8}</style>
<polygon fill="blue" stroke="black" points="70,-185 6,-185 6,-144 70,-144 70,-185"/>
<text text-anchor="middle" x="38" y="-173" font-family="Helvetica,sans-Serif" font-size="10.00" fill="white">carbon.</text>
<text text-anchor="middle" x="38" y="-162" font-family="Helvetica,sans-Serif" font-size="10.00" fill="white">core.</text>
<text text-anchor="middle" x="38" y="-151" font-family="Helvetica,sans-Serif" font-size="10.00" fill="white">execution</text>
</g>
<!-- carbon_core_datamethod&#45;&gt;carbon_core_execution -->
<g id="edge4" class="edge">
<title>carbon_core_datamethod&#45;&gt;carbon_core_execution</title><style>.edge>path:hover{stroke-width:8}</style>
<path fill="none" stroke="black" d="M36.18,-374.92C35.21,-359.69 34.78,-338.1 38,-319.5"/>
<path fill="none" stroke="black" d="M38,-317.5C45.25,-275.63 43.38,-226.3 41,-195.46"/>
<polygon fill="blue" stroke="black" points="44.47,-195.03 40.14,-185.36 37.5,-195.62 44.47,-195.03"/>
</g>
<!-- carbon_core_datamethod&#45;&gt;carbon_core_module -->
<g id="edge5" class="edge">
<title>carbon_core_datamethod&#45;&gt;carbon_core_module</title><style>.edge>path:hover{stroke-width:8}</style>
<path fill="none" stroke="black" d="M38,-317.5C41.1,-299.58 52.12,-282.91 63.49,-269.86"/>
<polygon fill="blue" stroke="black" points="66.33,-271.95 70.55,-262.23 61.19,-267.2 66.33,-271.95"/>
</g>
<!-- carbon_core_execution&#45;&gt;carbon_core -->
<g id="edge6" class="edge">
<title>carbon_core_execution&#45;&gt;carbon_core</title><style>.edge>path:hover{stroke-width:8}</style>
<path fill="none" stroke="black" d="M54.4,-143.69C61.41,-135.21 69.68,-125.22 77.12,-116.23"/>
<polygon fill="blue" stroke="black" points="79.99,-118.25 83.67,-108.32 74.59,-113.79 79.99,-118.25"/>
</g>
<!-- carbon_core_module&#45;&gt;carbon_core -->
<g id="edge7" class="edge">
<title>carbon_core_module&#45;&gt;carbon_core</title><style>.edge>path:hover{stroke-width:8}</style>
<path fill="none" stroke="black" d="M93.65,-220.96C94.53,-194.73 96.09,-148.03 97.09,-118.33"/>
<polygon fill="blue" stroke="black" points="100.59,-118.34 97.42,-108.23 93.59,-118.11 100.59,-118.34"/>
</g>
<!-- carbon_core_module&#45;&gt;carbon_core_execution -->
<g id="edge8" class="edge">
<title>carbon_core_module&#45;&gt;carbon_core_execution</title><style>.edge>path:hover{stroke-width:8}</style>
<path fill="none" stroke="black" d="M78.55,-220.79C72.36,-212.35 65.02,-202.35 58.3,-193.18"/>
<polygon fill="blue" stroke="black" points="61.09,-191.07 52.35,-185.07 55.45,-195.21 61.09,-191.07"/>
</g>
<!-- carbon_core_utilities -->
<g id="node7" class="node">
<title>carbon_core_utilities</title><style>.edge>path:hover{stroke-width:8}</style>
<ellipse fill="#ce3b3b" stroke="black" cx="99" cy="-480.99" rx="37.45" ry="28.98"/>
<text text-anchor="middle" x="99" y="-489.49" font-family="Helvetica,sans-Serif" font-size="10.00" fill="#ffffff">carbon.</text>
<text text-anchor="middle" x="99" y="-478.49" font-family="Helvetica,sans-Serif" font-size="10.00" fill="#ffffff">core.</text>
<text text-anchor="middle" x="99" y="-467.49" font-family="Helvetica,sans-Serif" font-size="10.00" fill="#ffffff">utilities</text>
</g>
<!-- carbon_core_utilities&#45;&gt;carbon_core_connection -->
<g id="edge9" class="edge">
<title>carbon_core_utilities&#45;&gt;carbon_core_connection</title><style>.edge>path:hover{stroke-width:8}</style>
<path fill="none" stroke="black" d="M99.35,-451.67C99.71,-422.98 100.26,-378.76 100.63,-349.49"/>
<polygon fill="#ce3b3b" stroke="black" points="104.13,-349.48 100.75,-339.43 97.13,-349.39 104.13,-349.48"/>
</g>
<!-- carbon_core_utilities&#45;&gt;carbon_core_datamethod -->
<g id="edge10" class="edge">
<title>carbon_core_utilities&#45;&gt;carbon_core_datamethod</title><style>.edge>path:hover{stroke-width:8}</style>
<path fill="none" stroke="black" d="M81.03,-455.39C73.89,-445.62 65.64,-434.33 58.29,-424.27"/>
<polygon fill="#ce3b3b" stroke="black" points="61.09,-422.18 52.37,-416.17 55.44,-426.31 61.09,-422.18"/>
</g>
<!-- carbon_data -->
<g id="node8" class="node">
<title>carbon_data</title><style>.edge>path:hover{stroke-width:8}</style>
<polygon fill="blue" stroke="black" points="136,-581.98 62,-581.98 62,-545.98 136,-545.98 136,-581.98"/>
<text text-anchor="middle" x="99" y="-561.48" font-family="Helvetica,sans-Serif" font-size="10.00" fill="white">carbon.data</text>
</g>
<!-- carbon_data&#45;&gt;carbon -->
<g id="edge11" class="edge">
<title>carbon_data&#45;&gt;carbon</title><style>.edge>path:hover{stroke-width:8}</style>
<path fill="none" stroke="black" d="M164,-317.5C140.54,-210.57 161.54,-180.06 144,-72 142.61,-63.45 140.56,-54.25 138.49,-45.95"/>
<polygon fill="blue" stroke="black" points="141.82,-44.84 135.91,-36.04 135.04,-46.6 141.82,-44.84"/>
</g>
<!-- carbon_data&#45;&gt;carbon_core_connection -->
<g id="edge12" class="edge">
<title>carbon_data&#45;&gt;carbon_core_connection</title><style>.edge>path:hover{stroke-width:8}</style>
<path fill="none" stroke="black" d="M118.41,-545.67C127.92,-536.1 138.66,-523.43 145,-509.98 166.8,-463.72 173.87,-446.68 164,-396.5"/>
<path fill="none" stroke="black" d="M164,-394.5C161.33,-375.78 149.1,-359.18 136.11,-346.38"/>
<polygon fill="blue" stroke="black" points="138.16,-343.51 128.44,-339.3 133.41,-348.65 138.16,-343.51"/>
</g>
<!-- carbon_data&#45;&gt;carbon_core_datamethod -->
<g id="edge13" class="edge">
<title>carbon_data&#45;&gt;carbon_core_datamethod</title><style>.edge>path:hover{stroke-width:8}</style>
<path fill="none" stroke="black" d="M79.4,-545.76C69.84,-536.21 59.1,-523.54 53,-509.98 41.04,-483.43 37.86,-450.08 37.32,-426.43"/>
<polygon fill="blue" stroke="black" points="40.82,-426.27 37.24,-416.3 33.82,-426.33 40.82,-426.27"/>
</g>
<!-- carbon_data&#45;&gt;carbon_core_module -->
<g id="edge14" class="edge">
<title>carbon_data&#45;&gt;carbon_core_module</title><style>.edge>path:hover{stroke-width:8}</style>
<path fill="none" stroke="black" d="M164,-394.5C159.29,-361.5 171.14,-352.06 164,-319.5"/>
<path fill="none" stroke="black" d="M164,-317.5C159.42,-296.62 143.71,-278.92 128.22,-265.97"/>
<polygon fill="blue" stroke="black" points="130.23,-263.09 120.21,-259.64 125.89,-268.58 130.23,-263.09"/>
</g>
<!-- carbon_data_data -->
<g id="node9" class="node">
<title>carbon_data_data</title><style>.edge>path:hover{stroke-width:8}</style>
<polygon fill="blue" stroke="black" points="126,-658.98 72,-658.98 72,-617.98 126,-617.98 126,-658.98"/>
<text text-anchor="middle" x="99" y="-646.98" font-family="Helvetica,sans-Serif" font-size="10.00" fill="white">carbon.</text>
<text text-anchor="middle" x="99" y="-635.98" font-family="Helvetica,sans-Serif" font-size="10.00" fill="white">data.</text>
<text text-anchor="middle" x="99" y="-624.98" font-family="Helvetica,sans-Serif" font-size="10.00" fill="white">data</text>
</g>
<!-- carbon_data_data&#45;&gt;carbon_data -->
<g id="edge15" class="edge">
<title>carbon_data_data&#45;&gt;carbon_data</title><style>.edge>path:hover{stroke-width:8}</style>
<path fill="none" stroke="black" d="M99,-617.67C99,-609.89 99,-600.82 99,-592.43"/>
<polygon fill="blue" stroke="black" points="102.5,-592.3 99,-582.3 95.5,-592.3 102.5,-592.3"/>
</g>
<!-- carbon_data_utilities -->
<g id="node10" class="node">
<title>carbon_data_utilities</title><style>.edge>path:hover{stroke-width:8}</style>
<ellipse fill="#c24747" stroke="black" cx="99" cy="-723.97" rx="37.45" ry="28.98"/>
<text text-anchor="middle" x="99" y="-732.47" font-family="Helvetica,sans-Serif" font-size="10.00" fill="#ffffff">carbon.</text>
<text text-anchor="middle" x="99" y="-721.47" font-family="Helvetica,sans-Serif" font-size="10.00" fill="#ffffff">data.</text>
<text text-anchor="middle" x="99" y="-710.47" font-family="Helvetica,sans-Serif" font-size="10.00" fill="#ffffff">utilities</text>
</g>
<!-- carbon_data_utilities&#45;&gt;carbon_data_data -->
<g id="edge16" class="edge">
<title>carbon_data_utilities&#45;&gt;carbon_data_data</title><style>.edge>path:hover{stroke-width:8}</style>
<path fill="none" stroke="black" d="M99,-694.71C99,-686.46 99,-677.42 99,-669.09"/>
<polygon fill="#c24747" stroke="black" points="102.5,-669.03 99,-659.03 95.5,-669.03 102.5,-669.03"/>
</g>
</g>
</svg>
