<?xml version="1.0" encoding="UTF-8" standalone="no"?>
<!DOCTYPE svg PUBLIC "-//W3C//DTD SVG 1.1//EN"
 "http://www.w3.org/Graphics/SVG/1.1/DTD/svg11.dtd">
<!-- Generated by graphviz version 2.43.0 (0)
 -->
<!-- Title: G Pages: 1 -->
<svg width="177pt" height="870pt"
 viewBox="0.00 0.00 176.64 869.97" xmlns="http://www.w3.org/2000/svg" xmlns:xlink="http://www.w3.org/1999/xlink">
<g id="graph0" class="graph" transform="scale(1 1) rotate(0) translate(4 865.97)">
<title>G</title><style>.edge>path:hover{stroke-width:8}</style>
<polygon fill="white" stroke="transparent" points="-4,4 -4,-865.97 172.64,-865.97 172.64,4 -4,4"/>
<!-- carbon -->
<g id="node1" class="node">
<title>carbon</title><style>.edge>path:hover{stroke-width:8}</style>
<polygon fill="blue" stroke="black" points="158,-145 104,-145 104,-109 158,-109 158,-145"/>
<text text-anchor="middle" x="131" y="-124.5" font-family="Helvetica,sans-Serif" font-size="10.00" fill="white">carbon</text>
</g>
<!-- main_py -->
<g id="node11" class="node">
<title>main_py</title><style>.edge>path:hover{stroke-width:8}</style>
<ellipse fill="#59a6a6" stroke="black" cx="131" cy="-18" rx="32.93" ry="18"/>
<text text-anchor="middle" x="131" y="-15.5" font-family="Helvetica,sans-Serif" font-size="10.00" fill="#000000">main.py</text>
</g>
<!-- carbon&#45;&gt;main_py -->
<g id="edge1" class="edge">
<title>carbon&#45;&gt;main_py</title><style>.edge>path:hover{stroke-width:8}</style>
<path fill="none" stroke="black" d="M131,-108.81C131,-91.96 131,-66.02 131,-46.34"/>
<polygon fill="blue" stroke="black" points="134.5,-46.15 131,-36.15 127.5,-46.15 134.5,-46.15"/>
</g>
<!-- carbon_core -->
<g id="node2" class="node">
<title>carbon_core</title><style>.edge>path:hover{stroke-width:8}</style>
<polygon fill="blue" stroke="black" points="135,-217 61,-217 61,-181 135,-181 135,-217"/>
<text text-anchor="middle" x="98" y="-196.5" font-family="Helvetica,sans-Serif" font-size="10.00" fill="white">carbon.core</text>
</g>
<!-- carbon_core&#45;&gt;carbon -->
<g id="edge2" class="edge">
<title>carbon_core&#45;&gt;carbon</title><style>.edge>path:hover{stroke-width:8}</style>
<path fill="none" stroke="black" d="M106.16,-180.7C109.91,-172.73 114.45,-163.1 118.62,-154.26"/>
<polygon fill="blue" stroke="black" points="121.84,-155.64 122.94,-145.1 115.51,-152.66 121.84,-155.64"/>
</g>
<!-- carbon_core_connection -->
<g id="node3" class="node">
<title>carbon_core_connection</title><style>.edge>path:hover{stroke-width:8}</style>
<polygon fill="blue" stroke="black" points="136,-448 66,-448 66,-407 136,-407 136,-448"/>
<text text-anchor="middle" x="101" y="-436" font-family="Helvetica,sans-Serif" font-size="10.00" fill="white">carbon.</text>
<text text-anchor="middle" x="101" y="-425" font-family="Helvetica,sans-Serif" font-size="10.00" fill="white">core.</text>
<text text-anchor="middle" x="101" y="-414" font-family="Helvetica,sans-Serif" font-size="10.00" fill="white">connection</text>
</g>
<!-- carbon_core_module -->
<g id="node6" class="node">
<title>carbon_core_module</title><style>.edge>path:hover{stroke-width:8}</style>
<polygon fill="blue" stroke="black" points="120,-371 66,-371 66,-330 120,-330 120,-371"/>
<text text-anchor="middle" x="93" y="-359" font-family="Helvetica,sans-Serif" font-size="10.00" fill="white">carbon.</text>
<text text-anchor="middle" x="93" y="-348" font-family="Helvetica,sans-Serif" font-size="10.00" fill="white">core.</text>
<text text-anchor="middle" x="93" y="-337" font-family="Helvetica,sans-Serif" font-size="10.00" fill="white">module</text>
</g>
<!-- carbon_core_connection&#45;&gt;carbon_core_module -->
<g id="edge3" class="edge">
<title>carbon_core_connection&#45;&gt;carbon_core_module</title><style>.edge>path:hover{stroke-width:8}</style>
<path fill="none" stroke="black" d="M98.9,-406.79C98.06,-398.96 97.08,-389.77 96.16,-381.16"/>
<polygon fill="blue" stroke="black" points="99.63,-380.65 95.09,-371.07 92.67,-381.39 99.63,-380.65"/>
</g>
<!-- carbon_core_datamethod -->
<g id="node4" class="node">
<title>carbon_core_datamethod</title><style>.edge>path:hover{stroke-width:8}</style>
<polygon fill="blue" stroke="black" points="76,-525 0,-525 0,-484 76,-484 76,-525"/>
<text text-anchor="middle" x="38" y="-513" font-family="Helvetica,sans-Serif" font-size="10.00" fill="white">carbon.</text>
<text text-anchor="middle" x="38" y="-502" font-family="Helvetica,sans-Serif" font-size="10.00" fill="white">core.</text>
<text text-anchor="middle" x="38" y="-491" font-family="Helvetica,sans-Serif" font-size="10.00" fill="white">datamethod</text>
</g>
<!-- carbon_core_datamethod&#45;&gt;carbon_core_connection -->
<g id="edge4" class="edge">
<title>carbon_core_datamethod&#45;&gt;carbon_core_connection</title><style>.edge>path:hover{stroke-width:8}</style>
<path fill="none" stroke="black" d="M54.55,-483.79C61.71,-475.27 70.22,-465.14 77.98,-455.9"/>
<polygon fill="blue" stroke="black" points="80.81,-457.98 84.56,-448.07 75.45,-453.48 80.81,-457.98"/>
</g>
<!-- carbon_core_execution -->
<g id="node5" class="node">
<title>carbon_core_execution</title><style>.edge>path:hover{stroke-width:8}</style>
<polygon fill="blue" stroke="black" points="70,-294 6,-294 6,-253 70,-253 70,-294"/>
<text text-anchor="middle" x="38" y="-282" font-family="Helvetica,sans-Serif" font-size="10.00" fill="white">carbon.</text>
<text text-anchor="middle" x="38" y="-271" font-family="Helvetica,sans-Serif" font-size="10.00" fill="white">core.</text>
<text text-anchor="middle" x="38" y="-260" font-family="Helvetica,sans-Serif" font-size="10.00" fill="white">execution</text>
</g>
<!-- carbon_core_datamethod&#45;&gt;carbon_core_execution -->
<g id="edge5" class="edge">
<title>carbon_core_datamethod&#45;&gt;carbon_core_execution</title><style>.edge>path:hover{stroke-width:8}</style>
<path fill="none" stroke="black" d="M36.18,-483.92C35.21,-468.69 34.78,-447.1 38,-428.5"/>
<path fill="none" stroke="black" d="M38,-426.5C45.25,-384.63 43.38,-335.3 41,-304.46"/>
<polygon fill="blue" stroke="black" points="44.47,-304.03 40.14,-294.36 37.5,-304.62 44.47,-304.03"/>
</g>
<!-- carbon_core_datamethod&#45;&gt;carbon_core_module -->
<g id="edge6" class="edge">
<title>carbon_core_datamethod&#45;&gt;carbon_core_module</title><style>.edge>path:hover{stroke-width:8}</style>
<path fill="none" stroke="black" d="M38,-426.5C41.1,-408.58 52.12,-391.91 63.49,-378.86"/>
<polygon fill="blue" stroke="black" points="66.33,-380.95 70.55,-371.23 61.19,-376.2 66.33,-380.95"/>
</g>
<!-- carbon_core_execution&#45;&gt;carbon_core -->
<g id="edge7" class="edge">
<title>carbon_core_execution&#45;&gt;carbon_core</title><style>.edge>path:hover{stroke-width:8}</style>
<path fill="none" stroke="black" d="M54.4,-252.69C61.41,-244.21 69.68,-234.22 77.12,-225.23"/>
<polygon fill="blue" stroke="black" points="79.99,-227.25 83.67,-217.32 74.59,-222.79 79.99,-227.25"/>
</g>
<!-- carbon_core_module&#45;&gt;carbon_core -->
<g id="edge8" class="edge">
<title>carbon_core_module&#45;&gt;carbon_core</title><style>.edge>path:hover{stroke-width:8}</style>
<path fill="none" stroke="black" d="M93.65,-329.96C94.53,-303.73 96.09,-257.03 97.09,-227.33"/>
<polygon fill="blue" stroke="black" points="100.59,-227.34 97.42,-217.23 93.59,-227.11 100.59,-227.34"/>
</g>
<!-- carbon_core_module&#45;&gt;carbon_core_execution -->
<g id="edge9" class="edge">
<title>carbon_core_module&#45;&gt;carbon_core_execution</title><style>.edge>path:hover{stroke-width:8}</style>
<path fill="none" stroke="black" d="M78.55,-329.79C72.36,-321.35 65.02,-311.35 58.3,-302.18"/>
<polygon fill="blue" stroke="black" points="61.09,-300.07 52.35,-294.07 55.45,-304.21 61.09,-300.07"/>
</g>
<!-- carbon_core_utilities -->
<g id="node7" class="node">
<title>carbon_core_utilities</title><style>.edge>path:hover{stroke-width:8}</style>
<ellipse fill="#c24747" stroke="black" cx="99" cy="-589.99" rx="37.45" ry="28.98"/>
<text text-anchor="middle" x="99" y="-598.49" font-family="Helvetica,sans-Serif" font-size="10.00" fill="#ffffff">carbon.</text>
<text text-anchor="middle" x="99" y="-587.49" font-family="Helvetica,sans-Serif" font-size="10.00" fill="#ffffff">core.</text>
<text text-anchor="middle" x="99" y="-576.49" font-family="Helvetica,sans-Serif" font-size="10.00" fill="#ffffff">utilities</text>
</g>
<!-- carbon_core_utilities&#45;&gt;carbon_core_connection -->
<g id="edge10" class="edge">
<title>carbon_core_utilities&#45;&gt;carbon_core_connection</title><style>.edge>path:hover{stroke-width:8}</style>
<path fill="none" stroke="black" d="M99.35,-560.67C99.71,-531.98 100.26,-487.76 100.63,-458.49"/>
<polygon fill="#c24747" stroke="black" points="104.13,-458.48 100.75,-448.43 97.13,-458.39 104.13,-458.48"/>
</g>
<!-- carbon_core_utilities&#45;&gt;carbon_core_datamethod -->
<g id="edge11" class="edge">
<title>carbon_core_utilities&#45;&gt;carbon_core_datamethod</title><style>.edge>path:hover{stroke-width:8}</style>
<path fill="none" stroke="black" d="M81.03,-564.39C73.89,-554.62 65.64,-543.33 58.29,-533.27"/>
<polygon fill="#c24747" stroke="black" points="61.09,-531.18 52.37,-525.17 55.44,-535.31 61.09,-531.18"/>
</g>
<!-- carbon_data -->
<g id="node8" class="node">
<title>carbon_data</title><style>.edge>path:hover{stroke-width:8}</style>
<polygon fill="blue" stroke="black" points="136,-690.98 62,-690.98 62,-654.98 136,-654.98 136,-690.98"/>
<text text-anchor="middle" x="99" y="-670.48" font-family="Helvetica,sans-Serif" font-size="10.00" fill="white">carbon.data</text>
</g>
<!-- carbon_data&#45;&gt;carbon -->
<g id="edge12" class="edge">
<title>carbon_data&#45;&gt;carbon</title><style>.edge>path:hover{stroke-width:8}</style>
<path fill="none" stroke="black" d="M164,-426.5C140.54,-319.57 161.54,-289.06 144,-181 142.61,-172.45 140.56,-163.25 138.49,-154.95"/>
<polygon fill="blue" stroke="black" points="141.82,-153.84 135.91,-145.04 135.04,-155.6 141.82,-153.84"/>
</g>
<!-- carbon_data&#45;&gt;carbon_core_connection -->
<g id="edge13" class="edge">
<title>carbon_data&#45;&gt;carbon_core_connection</title><style>.edge>path:hover{stroke-width:8}</style>
<path fill="none" stroke="black" d="M118.41,-654.67C127.92,-645.1 138.66,-632.43 145,-618.98 166.8,-572.72 173.87,-555.68 164,-505.5"/>
<path fill="none" stroke="black" d="M164,-503.5C161.33,-484.78 149.1,-468.18 136.11,-455.38"/>
<polygon fill="blue" stroke="black" points="138.16,-452.51 128.44,-448.3 133.41,-457.65 138.16,-452.51"/>
</g>
<!-- carbon_data&#45;&gt;carbon_core_datamethod -->
<g id="edge14" class="edge">
<title>carbon_data&#45;&gt;carbon_core_datamethod</title><style>.edge>path:hover{stroke-width:8}</style>
<path fill="none" stroke="black" d="M79.4,-654.76C69.84,-645.21 59.1,-632.54 53,-618.98 41.04,-592.43 37.86,-559.08 37.32,-535.43"/>
<polygon fill="blue" stroke="black" points="40.82,-535.27 37.24,-525.3 33.82,-535.33 40.82,-535.27"/>
</g>
<!-- carbon_data&#45;&gt;carbon_core_module -->
<g id="edge15" class="edge">
<title>carbon_data&#45;&gt;carbon_core_module</title><style>.edge>path:hover{stroke-width:8}</style>
<path fill="none" stroke="black" d="M164,-503.5C159.29,-470.5 171.14,-461.06 164,-428.5"/>
<path fill="none" stroke="black" d="M164,-426.5C159.42,-405.62 143.71,-387.92 128.22,-374.97"/>
<polygon fill="blue" stroke="black" points="130.23,-372.09 120.21,-368.64 125.89,-377.58 130.23,-372.09"/>
</g>
<!-- carbon_data_data -->
<g id="node9" class="node">
<title>carbon_data_data</title><style>.edge>path:hover{stroke-width:8}</style>
<polygon fill="blue" stroke="black" points="126,-767.98 72,-767.98 72,-726.98 126,-726.98 126,-767.98"/>
<text text-anchor="middle" x="99" y="-755.98" font-family="Helvetica,sans-Serif" font-size="10.00" fill="white">carbon.</text>
<text text-anchor="middle" x="99" y="-744.98" font-family="Helvetica,sans-Serif" font-size="10.00" fill="white">data.</text>
<text text-anchor="middle" x="99" y="-733.98" font-family="Helvetica,sans-Serif" font-size="10.00" fill="white">data</text>
</g>
<!-- carbon_data_data&#45;&gt;carbon_data -->
<g id="edge16" class="edge">
<title>carbon_data_data&#45;&gt;carbon_data</title><style>.edge>path:hover{stroke-width:8}</style>
<path fill="none" stroke="black" d="M99,-726.67C99,-718.89 99,-709.82 99,-701.43"/>
<polygon fill="blue" stroke="black" points="102.5,-701.3 99,-691.3 95.5,-701.3 102.5,-701.3"/>
</g>
<!-- carbon_data_utilities -->
<g id="node10" class="node">
<title>carbon_data_utilities</title><style>.edge>path:hover{stroke-width:8}</style>
<ellipse fill="#b65353" stroke="black" cx="99" cy="-832.97" rx="37.45" ry="28.98"/>
<text text-anchor="middle" x="99" y="-841.47" font-family="Helvetica,sans-Serif" font-size="10.00" fill="#ffffff">carbon.</text>
<text text-anchor="middle" x="99" y="-830.47" font-family="Helvetica,sans-Serif" font-size="10.00" fill="#ffffff">data.</text>
<text text-anchor="middle" x="99" y="-819.47" font-family="Helvetica,sans-Serif" font-size="10.00" fill="#ffffff">utilities</text>
</g>
<!-- carbon_data_utilities&#45;&gt;carbon_data_data -->
<g id="edge17" class="edge">
<title>carbon_data_utilities&#45;&gt;carbon_data_data</title><style>.edge>path:hover{stroke-width:8}</style>
<path fill="none" stroke="black" d="M99,-803.71C99,-795.46 99,-786.42 99,-778.09"/>
<polygon fill="#b65353" stroke="black" points="102.5,-778.03 99,-768.03 95.5,-778.03 102.5,-778.03"/>
</g>
</g>
</svg>
